<?xml version="1.0" encoding="UTF-8" standalone="no"?>
<!-- Created with Inkscape (http://www.inkscape.org/) -->

<svg
   width="195.71661mm"
   height="89.051071mm"
   viewBox="0 0 195.71661 89.051071"
   version="1.1"
   id="svg1"
   inkscape:version="1.4.3 (0d15f75, 2025-12-25)"
   sodipodi:docname="examplethumb2.svg"
   inkscape:export-filename="docs/012/thumb.png"
   inkscape:export-xdpi="96"
   inkscape:export-ydpi="96"
   xml:space="preserve"
   xmlns:inkscape="http://www.inkscape.org/namespaces/inkscape"
   xmlns:sodipodi="http://sodipodi.sourceforge.net/DTD/sodipodi-0.dtd"
   xmlns:xlink="http://www.w3.org/1999/xlink"
   xmlns="http://www.w3.org/2000/svg"
   xmlns:svg="http://www.w3.org/2000/svg"><sodipodi:namedview
     id="namedview1"
     pagecolor="#505050"
     bordercolor="#eeeeee"
     borderopacity="1"
     inkscape:showpageshadow="0"
     inkscape:pageopacity="0"
     inkscape:pagecheckerboard="0"
     inkscape:deskcolor="#505050"
     inkscape:document-units="mm"
     inkscape:zoom="1.0166059"
     inkscape:cx="363.46435"
     inkscape:cy="96.891037"
     inkscape:window-width="1440"
     inkscape:window-height="829"
     inkscape:window-x="-8"
     inkscape:window-y="-8"
     inkscape:window-maximized="1"
     inkscape:current-layer="layer1"><inkscape:page
       x="0"
       y="0"
       width="195.71661"
       height="89.051071"
       id="page2"
       margin="0"
       bleed="0" /></sodipodi:namedview><defs
     id="defs1"><inkscape:perspective
       sodipodi:type="inkscape:persp3d"
       inkscape:vp_x="-14.877201 : 39.681795 : 1"
       inkscape:vp_y="0 : 1000 : 0"
       inkscape:vp_z="180.83941 : 39.681795 : 1"
       inkscape:persp3d-origin="82.981104 : 24.83995 : 1"
       id="perspective1" /><linearGradient
       id="linearGradient1"
       inkscape:collect="always"><stop
         style="stop-color:#494957;stop-opacity:1;"
         offset="0"
         id="stop1" /><stop
         style="stop-color:#000000;stop-opacity:1;"
         offset="1"
         id="stop2" /></linearGradient><linearGradient
       inkscape:collect="always"
       xlink:href="#linearGradient1"
       id="linearGradient2"
       x1="10.764415"
       y1="111.55848"
       x2="52.843472"
       y2="226.05272"
       gradientUnits="userSpaceOnUse"
       gradientTransform="matrix(0.77950788,0,0,1.1488648,13.105192,-25.248472)" /><linearGradient
       id="linearGradient31"
       inkscape:collect="always"><stop
         style="stop-color:#000000;stop-opacity:1;"
         offset="0.94712645"
         id="stop31" /><stop
         style="stop-color:#2b2b2b;stop-opacity:1;"
         offset="1"
         id="stop32" /></linearGradient><linearGradient
       id="linearGradient28"
       inkscape:collect="always"><stop
         style="stop-color:#222222;stop-opacity:1;"
         offset="0.94482756"
         id="stop29" /><stop
         style="stop-color:#000000;stop-opacity:1;"
         offset="0.98850572"
         id="stop30" /></linearGradient><linearGradient
       id="linearGradient20"
       inkscape:collect="always"><stop
         style="stop-color:#ffffff;stop-opacity:1;"
         offset="0.57701147"
         id="stop20" /><stop
         style="stop-color:#aeaeae;stop-opacity:1;"
         offset="0.61035818"
         id="stop22" /><stop
         style="stop-color:#ffffff;stop-opacity:1;"
         offset="0.65634859"
         id="stop23" /><stop
         style="stop-color:#8b8b8b;stop-opacity:1;"
         offset="0.65634859"
         id="stop24" /><stop
         style="stop-color:#ffffff;stop-opacity:1;"
         offset="0.70488507"
         id="stop25" /><stop
         style="stop-color:#cbcbcb;stop-opacity:1;"
         offset="0.70488507"
         id="stop26" /><stop
         style="stop-color:#ffffff;stop-opacity:1;"
         offset="0.74863505"
         id="stop27" /><stop
         style="stop-color:#7a7a7a;stop-opacity:1;"
         offset="0.74863505"
         id="stop28" /><stop
         style="stop-color:#ffffff;stop-opacity:1;"
         offset="0.81839079"
         id="stop21" /></linearGradient><linearGradient
       inkscape:collect="always"
       xlink:href="#linearGradient20"
       id="linearGradient21"
       x1="109.01536"
       y1="102.57823"
       x2="128.71849"
       y2="102.57823"
       gradientUnits="userSpaceOnUse" /><linearGradient
       inkscape:collect="always"
       xlink:href="#linearGradient28"
       id="linearGradient30"
       x1="27.88962"
       y1="102.75123"
       x2="129.66226"
       y2="102.75123"
       gradientUnits="userSpaceOnUse" /><linearGradient
       inkscape:collect="always"
       xlink:href="#linearGradient31"
       id="linearGradient32"
       x1="27.88962"
       y1="102.75123"
       x2="120.36572"
       y2="102.75123"
       gradientUnits="userSpaceOnUse" /></defs><g
     inkscape:label="Layer 1"
     inkscape:groupmode="layer"
     id="layer1"
     transform="translate(-10.764415,-67.032945)"><path
       id="rect1"
       style="opacity:1;fill:url(#linearGradient2);fill-rule:evenodd;stroke-width:0.034725;stroke-linecap:round;stroke-linejoin:round;stroke-miterlimit:3.6"
       d="m 22.831063,51.763324 c 49.964267,0 99.928557,0 149.892807,0 2.4401,1.307972 0.90288,6.350914 1.33492,9.37844 0,30.320578 0,60.641166 0,90.961726 -0.88746,3.59628 -4.30911,1.33068 -6.3633,1.96745 -48.28813,0 -96.576284,0 -144.864427,0 -2.440088,-1.30797 -0.902873,-6.3509 -1.334923,-9.37843 0,-30.32059 0,-60.641154 0,-90.961733 -0.01924,-1.054903 0.619168,-1.995804 1.334923,-1.967453 z"
       inkscape:export-filename="thumb.svg"
       inkscape:export-xdpi="96"
       inkscape:export-ydpi="96"
       inkscape:label="bg" /><rect
       style="opacity:0.226974;fill:#ffffff;fill-opacity:1;fill-rule:evenodd;stroke-width:0.0359433;stroke-linecap:round;stroke-linejoin:round;stroke-miterlimit:3.6"
       id="rect11"
       width="144.44511"
       height="89.009422"
       x="25.859579"
       y="58.184055"
       ry="0.37930143" /><g
       id="g9"
       transform="matrix(0.59481012,0,0,0.56460168,60.639901,-6.7356803)"><text
         xml:space="preserve"
         style="font-size:19.5723px;font-family:'OCR A Extended';-inkscape-font-specification:'OCR A Extended';writing-mode:lr-tb;direction:ltr;opacity:1;fill:#ffffff;fill-rule:evenodd;stroke-width:0.0605897;stroke-linecap:round;stroke-linejoin:round;stroke-miterlimit:3.6"
         x="-59.207558"
         y="243.16296"
         id="text9"
         inkscape:label="add title"
         transform="scale(0.9868305,1.0133452)"><tspan
           sodipodi:role="line"
           style="stroke-width:0.0605896"
           x="-59.207558"
           y="243.16296"
           id="tspan8">Chapter 012:</tspan></text><text
         xml:space="preserve"
         style="font-size:10.8348px;font-family:'OCR A Extended';-inkscape-font-specification:'OCR A Extended';writing-mode:lr-tb;direction:ltr;opacity:1;fill:#ffffff;fill-rule:evenodd;stroke-width:0.0335415;stroke-linecap:round;stroke-linejoin:round;stroke-miterlimit:3.6"
         x="13.60217"
         y="186.72563"
         id="text1"
         transform="scale(0.95573109,1.0463194)"><tspan
           sodipodi:role="line"
           id="tspan1"
           style="stroke-width:0.0335414"
           x="13.60217"
           y="186.72563">/docs/012</tspan></text><path
         d="m 27.9279,169.89006 v 3.34231 q 0,0.55979 -0.387372,0.97141 -0.387371,0.41161 -0.914197,0.41161 h -9.203958 v 0.80677 q 0,0.70798 0.573311,1.20191 l 0.759248,0.67505 q 0.619796,0.5104 1.177611,0.5104 h 6.693788 q 0.526826,0 0.914197,0.41162 0.387372,0.39515 0.387372,0.9714 0,0.55981 -0.402867,0.97141 -0.387371,0.41161 -0.898702,0.41161 h -6.864232 q -0.681774,0 -1.441023,-0.29635 -0.743754,-0.31283 -1.100136,-0.64213 l -1.162116,-1.08665 q -0.542321,-0.46101 -0.914199,-1.28424 -0.356381,-0.82323 -0.356381,-1.51474 v -6.33886 q 0,-0.54333 0.387372,-1.46535 0.402866,-0.92201 1.007166,-1.43242 l 1.084643,-0.90555 q 1.069146,-0.92202 2.370716,-0.92202 h 3.656791 q 1.379044,0 2.60314,1.21838 l 0.976176,0.98788 q 1.053652,1.00433 1.053652,2.99655 z m -10.474538,-0.21404 v 2.1404 h 7.902388 v -1.92636 q 0,-0.77383 -0.449351,-1.18545 l -0.759249,-0.70798 q -0.588805,-0.5104 -1.053651,-0.5104 h -3.26942 q -0.6043,0 -1.100136,0.44455 l -0.75925,0.67504 q -0.511331,0.41162 -0.511331,1.0702 z m 16.533036,9.51652 v -13.12226 q 0,-0.57626 0.371878,-0.98788 0.387371,-0.42807 0.929692,-0.42807 0.542321,0 0.914198,0.41161 0.387372,0.41161 0.387372,1.00434 v 1.72878 l 2.122798,-1.92635 q 1.317065,-1.18546 2.57215,-1.18546 h 1.90587 q 1.611467,0 2.758088,1.21838 1.146622,1.21838 1.146622,2.93069 v 0.74091 q 0,0.59273 -0.387372,1.00434 -0.371878,0.41162 -0.914198,0.41162 -0.542321,0 -0.929694,-0.39516 -0.371875,-0.41161 -0.371875,-0.98787 v -0.77384 q 0,-0.57625 -0.387373,-0.9714 -0.371877,-0.41162 -0.914198,-0.41162 h -1.688941 q -0.542322,0 -1.208601,0.60919 l -3.703276,3.40817 v 7.72188 q 0,0.57627 -0.387372,0.98788 -0.387372,0.39514 -0.914198,0.39514 -0.542321,0 -0.929692,-0.39514 -0.371878,-0.41161 -0.371878,-0.98788 z m 19.167166,0 v -13.12226 q 0,-0.57626 0.371876,-0.98788 0.387373,-0.42807 0.929694,-0.42807 0.54232,0 0.914198,0.41161 0.387371,0.41161 0.387371,1.00434 v 1.72878 l 2.122799,-1.92635 q 1.317065,-1.18546 2.572149,-1.18546 h 1.90587 q 1.611468,0 2.758088,1.21838 1.146621,1.21838 1.146621,2.93069 v 0.74091 q 0,0.59273 -0.387372,1.00434 -0.371876,0.41162 -0.914198,0.41162 -0.542319,0 -0.929692,-0.39516 -0.371877,-0.41161 -0.371877,-0.98787 v -0.77384 q 0,-0.57625 -0.387371,-0.9714 -0.371878,-0.41162 -0.914199,-0.41162 h -1.688942 q -0.54232,0 -1.2086,0.60919 l -3.703276,3.40817 v 7.72188 q 0,0.57627 -0.387371,0.98788 -0.387373,0.39514 -0.914198,0.39514 -0.542321,0 -0.929694,-0.39514 -0.371876,-0.41161 -0.371876,-0.98788 z m 32.27583,-9.51652 v 5.84493 q 0,1.86049 -1.657952,3.44109 -1.642457,1.5806 -3.393378,1.5806 h -3.052491 q -1.781911,0 -3.408873,-1.59706 -1.626963,-1.61353 -1.626963,-3.42463 v -5.84493 q 0,-1.8111 1.580477,-3.40816 1.595973,-1.61353 3.455359,-1.61353 h 3.052491 q 1.750921,-0.0329 3.393378,1.54767 1.657952,1.58059 1.657952,3.47402 z m -10.505528,0.11526 v 5.59794 q 0,0.75738 0.511332,1.20192 l 0.976176,0.88909 q 0.325394,0.29636 0.914199,0.29636 h 3.021501 q 0.666279,0 1.2086,-0.5104 l 0.790239,-0.74091 q 0.480342,-0.39514 0.480342,-1.10312 v -5.59796 q 0,-0.82323 -0.480342,-1.21838 l -0.914198,-0.77383 q -0.464846,-0.41161 -1.084641,-0.41161 h -2.696109 q -0.883208,0 -1.363549,0.44454 l -0.883208,0.80676 q -0.480342,0.42808 -0.480342,1.1196 z m 16.564028,9.40126 v -13.12226 q 0,-0.57626 0.371885,-0.98788 0.387364,-0.42807 0.929678,-0.42807 0.542332,0 0.9142,0.41161 0.387382,0.41161 0.387382,1.00434 v 1.72878 l 2.122787,-1.92635 q 1.317068,-1.18546 2.572153,-1.18546 h 1.905871 q 1.61149,0 2.7581,1.21838 1.14662,1.21838 1.14662,2.93069 v 0.74091 q 0,0.59273 -0.38736,1.00434 -0.37189,0.41162 -0.9142,0.41162 -0.54233,0 -0.9297,-0.39516 -0.37188,-0.41161 -0.37188,-0.98787 v -0.77384 q 0,-0.57625 -0.38739,-0.9714 -0.37186,-0.41162 -0.91419,-0.41162 h -1.688945 q -0.542315,0 -1.208597,0.60919 l -3.703269,3.40817 v 7.72188 q 0,0.57627 -0.387382,0.98788 -0.387364,0.39514 -0.9142,0.39514 -0.542314,0 -0.929678,-0.39514 -0.371885,-0.41161 -0.371885,-0.98788 z m 24.373456,-7.3432 h 2.63412 q 0.52683,0 0.9142,0.41162 0.38737,0.39515 0.38737,0.97141 v 2.35443 q 0,0.57626 -0.38737,1.00434 -0.37188,0.41162 -0.9142,0.41162 h -2.66512 q -0.54232,0 -0.92969,-0.41162 -0.37188,-0.41161 -0.37188,-0.9714 v -2.38737 q 0,-0.57626 0.38737,-0.97141 0.38738,-0.41162 0.9452,-0.41162 z m 24.4354,-5.23573 v -6.53644 q 0,-0.57626 0.37188,-0.9714 0.37189,-0.41162 0.89871,-0.41162 0.54232,0 0.9297,0.41162 0.40286,0.39514 0.40286,0.9714 v 19.11537 q 0,0.57627 -0.38737,0.98788 -0.38737,0.39514 -0.9142,0.39514 -0.55781,0 -0.9297,-0.39514 -0.37188,-0.41161 -0.37188,-0.98788 v -0.60919 q -1.90586,1.99221 -3.56381,1.99221 h -2.21576 q -1.33257,0 -2.66513,-1.21837 l -1.08463,-0.97141 q -0.37189,-0.37868 -0.71277,-1.26777 -0.32539,-0.88908 -0.32539,-1.66292 v -5.63089 q 0,-0.93848 0.37188,-1.81111 0.37187,-0.88908 0.8677,-1.33362 l 1.06915,-0.97141 q 1.14662,-1.05373 2.69611,-1.05373 h 1.87488 q 1.534,0 2.78908,1.15251 z m -3.78074,0.83969 h -1.81291 q -0.57331,0 -1.03815,0.44454 l -0.83673,0.77384 q -0.43385,0.41162 -0.43385,1.05374 v 5.86138 q 0,0.57626 0.51133,1.03727 l 0.85222,0.77384 q 0.40287,0.37868 0.85222,0.37868 h 2.1228 q 0.41836,0 0.99167,-0.5104 l 2.06081,-1.8111 q 0.51133,-0.47747 0.51133,-1.18545 v -2.99655 q 0,-1.00435 -0.54231,-1.48181 l -2.1228,-1.92636 q -0.41836,-0.41162 -1.11563,-0.41162 z m 25.58205,2.22272 v 5.84493 q 0,1.86049 -1.65795,3.44109 -1.64247,1.5806 -3.39339,1.5806 h -3.05248 q -1.78192,0 -3.40887,-1.59706 -1.62696,-1.61353 -1.62696,-3.42463 v -5.84493 q 0,-1.8111 1.58047,-3.40816 1.59597,-1.61353 3.45536,-1.61353 h 3.05248 q 1.75092,-0.0329 3.39339,1.54767 1.65795,1.58059 1.65795,3.47402 z m -10.50554,0.11526 v 5.59794 q 0,0.75738 0.51134,1.20192 l 0.97618,0.88909 q 0.32539,0.29636 0.9142,0.29636 h 3.0215 q 0.66628,0 1.2086,-0.5104 l 0.79023,-0.74091 q 0.48035,-0.39514 0.48035,-1.10312 v -5.59796 q 0,-0.82323 -0.48035,-1.21838 l -0.91419,-0.77383 q -0.46485,-0.41161 -1.08464,-0.41161 h -2.69611 q -0.88321,0 -1.36355,0.44454 l -0.88321,0.80676 q -0.48035,0.42808 -0.48035,1.1196 z m 28.40212,10.78428 h -5.56266 q -1.47201,0 -2.51017,-0.93848 l -2.52566,-2.33796 q -1.2086,-1.07019 -1.2086,-2.89777 v -3.60574 q -0.062,-1.76171 1.36355,-3.06241 l 2.27775,-2.091 q 1.10013,-0.95495 2.35521,-0.95495 h 5.84157 q 0.54232,0 0.9142,0.41162 0.38738,0.39515 0.38738,0.97141 0,0.59272 -0.38738,0.98787 -0.37188,0.39515 -0.9142,0.39515 h -5.59365 q -0.52683,0 -1.00717,0.44454 l -2.09181,1.89344 q -0.51133,0.461 -0.51133,1.23483 v 3.37524 q 0,0.54333 0.40287,0.92202 l 2.29324,2.07454 q 0.43386,0.41161 1.14662,0.41161 h 5.33024 q 0.52682,0 0.9142,0.41162 0.38737,0.39515 0.38737,0.9714 0,0.57627 -0.38737,0.98788 -0.37187,0.39514 -0.9142,0.39514 z"
         id="text7"
         style="font-size:34.433px;font-family:'OCR A Extended';-inkscape-font-specification:'OCR A Extended';fill:#ffffff;fill-rule:evenodd;stroke-width:0.101264;stroke-linecap:round;stroke-linejoin:round;stroke-miterlimit:3.6"
         aria-label="error.doc" /><text
         xml:space="preserve"
         style="font-size:20.4541px;font-family:'Courier New';-inkscape-font-specification:'Courier New';writing-mode:lr-tb;direction:ltr;opacity:0.226974;fill:#0012c6;fill-rule:evenodd;stroke-width:0.0633196;stroke-linecap:round;stroke-linejoin:round;stroke-miterlimit:3.6"
         x="15.882169"
         y="136.27716"
         id="text4"
         transform="scale(0.97427578,1.0264034)"><tspan
           sodipodi:role="line"
           id="tspan4"
           style="stroke-width:0.0633195"
           x="15.882169"
           y="136.27716" /></text><text
         xml:space="preserve"
         style="font-size:10.8348px;font-family:'OCR A Extended';-inkscape-font-specification:'OCR A Extended';writing-mode:lr-tb;direction:ltr;opacity:1;fill:#ffffff;fill-rule:evenodd;stroke-width:0.0335415;stroke-linecap:round;stroke-linejoin:round;stroke-miterlimit:3.6"
         x="12.686527"
         y="148.39706"
         id="text5"
         transform="scale(0.9557311,1.0463194)"><tspan
           sodipodi:role="line"
           id="tspan5"
           style="stroke-width:0.0335414"
           x="12.686527"
           y="148.39706">zynomon.github.io/</tspan></text><text
         xml:space="preserve"
         style="font-size:20.4541px;font-family:'Courier New';-inkscape-font-specification:'Courier New';writing-mode:lr-tb;direction:ltr;opacity:0.226974;fill:#0012c6;fill-rule:evenodd;stroke-width:0.0633196;stroke-linecap:round;stroke-linejoin:round;stroke-miterlimit:3.6"
         x="-43.849026"
         y="236.87708"
         id="text8"
         transform="scale(0.97427578,1.0264034)"><tspan
           sodipodi:role="line"
           id="tspan7"
           style="stroke-width:0.0633195"
           x="-43.849026"
           y="236.87708" /></text></g><text
       xml:space="preserve"
       style="font-size:11.8533px;font-family:'OCR A Extended';-inkscape-font-specification:'OCR A Extended';writing-mode:lr-tb;direction:ltr;opacity:0.226974;fill:#ffffff;fill-rule:evenodd;stroke-width:0.0366943;stroke-linecap:round;stroke-linejoin:round;stroke-miterlimit:3.6"
       x="41.556763"
       y="144.87875"
       id="text6"><tspan
         sodipodi:role="line"
         id="tspan6"
         style="stroke-width:0.0366942"
         x="41.556763"
         y="144.87875" /></text><g
       id="g32"
       inkscape:label="error.doc"
       transform="matrix(0.39648118,0,0,0.40101761,15.742681,40.691624)"><path
         id="rect17"
         style="opacity:1;fill:url(#linearGradient30);fill-rule:evenodd;stroke-width:0.0330242;stroke-linecap:round;stroke-linejoin:round;stroke-miterlimit:3.6"
         d="M 28.033779,46.4827 H 129.5181 c 0.0799,0 0.14416,0.0643 0.14416,0.144159 V 158.87561 c 0,0.0799 -0.0643,0.14415 -0.14416,0.14415 H 28.033779 c -0.07986,0 -0.144159,-0.0643 -0.144159,-0.14415 V 46.626859 c 0,-0.07986 0.06429,-0.144159 0.144159,-0.144159 z"
         inkscape:label="backcover" /><path
         id="rect16"
         style="opacity:1;fill:url(#linearGradient21);fill-rule:evenodd;stroke-width:0.0325986;stroke-linecap:round;stroke-linejoin:round;stroke-miterlimit:3.6"
         d="m 30.97534,46.971992 h 94.13334 c 0.0831,0 0.14997,0.06689 0.14997,0.14997 V 158.38048 c 0,0.0831 -0.0669,0.14997 -0.14997,0.14997 H 30.97534 c -0.08308,0 -0.149969,-0.0669 -0.149969,-0.14997 V 47.121962 c 0,-0.08308 0.06689,-0.14997 0.149969,-0.14997 z"
         inkscape:label="page" /><path
         id="rect15"
         style="opacity:1;fill:url(#linearGradient32);fill-rule:evenodd;stroke-width:0.0314798;stroke-linecap:round;stroke-linejoin:round;stroke-miterlimit:3.6"
         d="m 28.033779,46.4827 h 92.187791 c 0.0799,0 0.14415,0.0643 0.14415,0.144159 V 158.87561 c 0,0.0799 -0.0643,0.14415 -0.14415,0.14415 H 28.033779 c -0.07986,0 -0.144159,-0.0643 -0.144159,-0.14415 V 46.626859 c 0,-0.07986 0.06429,-0.144159 0.144159,-0.144159 z"
         inkscape:label="cover" /><path
         id="rect18"
         style="opacity:0.226974;fill:#ffffff;fill-rule:evenodd;stroke-width:0.0366943;stroke-linecap:round;stroke-linejoin:round;stroke-miterlimit:3.6"
         d="m 95.584848,46.4827 h 9.929142 c 0.0958,0 0.17299,0.07715 0.17299,0.172991 v 29.011517 c 0,0.09584 -5.17529,-3.863207 -5.24939,-3.802503 l -4.852742,3.975494 c -0.07414,0.06074 -0.17299,-0.07715 -0.17299,-0.172991 V 46.655691 c 0,-0.09584 0.07715,-0.172991 0.17299,-0.172991 z"
         sodipodi:nodetypes="sssssssss"
         inkscape:label="sv" /><path
         style="font-size:38.9229px;font-family:'Courier New';-inkscape-font-specification:'Courier New';opacity:0.226974;fill:#ffffff;fill-rule:evenodd;stroke-width:0.120493;stroke-linecap:round;stroke-linejoin:round;stroke-miterlimit:3.6"
         d="m 48.524269,96.110716 17.256833,-9.616694 q 0.418117,-0.228064 0.627175,-0.228064 0.323091,0 0.551155,0.24707 0.247069,0.228063 0.247069,0.551154 0,0.475133 -0.646181,0.836234 l -14.786141,8.2103 14.767136,8.210304 q 0.646181,0.3611 0.646181,0.83623 0,0.32309 -0.24707,0.57016 -0.228063,0.22806 -0.551154,0.22806 -0.209058,0 -0.627176,-0.22806 z M 83.227988,84.954591 82.505786,97.8402 q -0.03801,0.60817 -0.266074,0.855239 -0.209059,0.24707 -0.532149,0.24707 -0.342096,0 -0.57016,-0.24707 Q 80.928344,98.44837 80.890334,97.8402 L 80.187137,84.954591 q -0.03801,-0.456128 -0.03801,-0.665186 0,-0.646181 0.437123,-1.083304 0.456127,-0.437122 1.121314,-0.437122 0.665186,0 1.102308,0.437122 0.437123,0.437123 0.437123,1.102309 0,0.190053 -0.01901,0.646181 z m -1.900532,18.853279 h 0.741208 q 0.817229,0 1.387388,0.58917 0.589165,0.57016 0.589165,1.38738 0,0.83624 -0.589165,1.4064 -0.589165,0.57016 -1.387388,0.57016 h -0.741208 q -0.817229,0 -1.406394,-0.57016 -0.570159,-0.58917 -0.570159,-1.38739 0,-0.85524 0.589165,-1.4254 0.589165,-0.57016 1.387388,-0.57016 z m 33.544394,-7.697154 -17.256832,9.616694 q -0.418117,0.22806 -0.627176,0.22806 -0.32309,0 -0.570159,-0.22806 -0.228064,-0.24707 -0.228064,-0.57016 0,-0.47513 0.646181,-0.83623 l 14.78614,-8.210304 -14.767135,-8.2103 q -0.646181,-0.361101 -0.646181,-0.836234 0,-0.323091 0.228064,-0.551154 0.247069,-0.24707 0.57016,-0.24707 0.209058,0 0.627175,0.228064 z"
         id="text32"
         transform="scale(0.86511154,1.1559203)"
         aria-label="&lt;!&gt;"
         inkscape:label="&lt;!&gt;" /></g><text
       xml:space="preserve"
       style="font-size:11.3423px;font-family:'OCR A Extended';-inkscape-font-specification:'OCR A Extended';writing-mode:lr-tb;direction:ltr;opacity:1;fill:#ffffff;fill-rule:evenodd;stroke-width:0.0351123;stroke-linecap:round;stroke-linejoin:round;stroke-miterlimit:3.6"
       x="38.918522"
       y="145.95535"
       id="text10"
       inkscape:label="add title"
       transform="scale(1.0128862,0.98727774)"><tspan
         sodipodi:role="line"
         style="stroke-width:0.0351122"
         x="38.918522"
         y="145.95535"
         id="tspan9">Making of error.os</tspan></text><rect
       style="opacity:0.226974;fill:#ffffff;fill-rule:evenodd;stroke-width:0.0366943;stroke-linecap:round;stroke-linejoin:round;stroke-miterlimit:3.6;fill-opacity:1"
       id="rect10"
       width="136.37701"
       height="0.78078437"
       x="28.201933"
       y="114.40053"
       ry="0.39039218"
       inkscape:export-filename="thumb.png"
       inkscape:export-xdpi="96"
       inkscape:export-ydpi="96" /></g></svg>
