<?xml version="1.0" encoding="UTF-8" standalone="no"?>
<!-- Created with Inkscape (http://www.inkscape.org/) -->

<svg
   width="195.71661mm"
   height="89.051071mm"
   viewBox="0 0 195.71661 89.051071"
   version="1.1"
   id="svg1"
   inkscape:version="1.4.3 (0d15f75, 2025-12-25)"
   sodipodi:docname="examplethumb.svg"
   inkscape:export-filename="docs/012/thumb.png"
   inkscape:export-xdpi="96"
   inkscape:export-ydpi="96"
   xmlns:inkscape="http://www.inkscape.org/namespaces/inkscape"
   xmlns:sodipodi="http://sodipodi.sourceforge.net/DTD/sodipodi-0.dtd"
   xmlns:xlink="http://www.w3.org/1999/xlink"
   xmlns="http://www.w3.org/2000/svg"
   xmlns:svg="http://www.w3.org/2000/svg">
  <sodipodi:namedview
     id="namedview1"
     pagecolor="#505050"
     bordercolor="#eeeeee"
     borderopacity="1"
     inkscape:showpageshadow="0"
     inkscape:pageopacity="0"
     inkscape:pagecheckerboard="0"
     inkscape:deskcolor="#505050"
     inkscape:document-units="mm"
     inkscape:zoom="1.0166059"
     inkscape:cx="249.85099"
     inkscape:cy="96.891034"
     inkscape:window-width="1440"
     inkscape:window-height="829"
     inkscape:window-x="-8"
     inkscape:window-y="-8"
     inkscape:window-maximized="1"
     inkscape:current-layer="layer1">
    <inkscape:page
       x="0"
       y="0"
       width="195.71661"
       height="89.051071"
       id="page2"
       margin="0"
       bleed="0" />
  </sodipodi:namedview>
  <defs
     id="defs1">
    <inkscape:perspective
       sodipodi:type="inkscape:persp3d"
       inkscape:vp_x="-14.877201 : 39.681795 : 1"
       inkscape:vp_y="0 : 1000 : 0"
       inkscape:vp_z="180.83941 : 39.681795 : 1"
       inkscape:persp3d-origin="82.981104 : 24.83995 : 1"
       id="perspective1" />
    <linearGradient
       id="linearGradient1"
       inkscape:collect="always">
      <stop
         style="stop-color:#000000;stop-opacity:1;"
         offset="0"
         id="stop1" />
      <stop
         style="stop-color:#030a25;stop-opacity:1;"
         offset="1"
         id="stop2" />
    </linearGradient>
    <linearGradient
       inkscape:collect="always"
       xlink:href="#linearGradient1"
       id="linearGradient2"
       x1="10.764415"
       y1="111.55848"
       x2="52.843472"
       y2="226.05272"
       gradientUnits="userSpaceOnUse"
       gradientTransform="translate(0.3459814,0.3459816)" />
  </defs>
  <g
     inkscape:label="Layer 1"
     inkscape:groupmode="layer"
     id="layer1"
     transform="translate(-10.764415,-67.032945)">
    <path
       id="rect1"
       style="opacity:1;fill:url(#linearGradient2);fill-rule:evenodd;stroke-width:0.0366943;stroke-linecap:round;stroke-linejoin:round;stroke-miterlimit:3.6"
       d="m 12.822916,67.37893 c 64.097195,0 128.194394,0 192.291584,0 3.13029,1.13849 1.15826,5.527991 1.71252,8.163224 0,26.391776 0,52.783546 0,79.175316 -1.13849,3.13029 -5.52799,1.15826 -8.16322,1.71252 -61.94696,0 -123.893924,0 -185.840884,0 -3.1302919,-1.13849 -1.158259,-5.52799 -1.71252,-8.16322 0,-26.39178 0,-52.783548 0,-79.17532 -0.02468,-0.918213 0.794307,-1.737198 1.71252,-1.71252 z"
       inkscape:export-filename="thumb.svg"
       inkscape:export-xdpi="96"
       inkscape:export-ydpi="96"
       inkscape:label="bg"
       sodipodi:insensitive="true" />
    <text
       xml:space="preserve"
       style="font-size:11.3423px;font-family:'OCR A Extended';-inkscape-font-specification:'OCR A Extended';writing-mode:lr-tb;direction:ltr;opacity:0.718;fill:#ffffff;fill-rule:evenodd;stroke-width:0.0351123;stroke-linecap:round;stroke-linejoin:round;stroke-miterlimit:3.6"
       x="13.737391"
       y="82.160484"
       id="text2"
       inkscape:label="add title"
       transform="scale(1.0128862,0.98727774)"><tspan
         sodipodi:role="line"
         style="stroke-width:0.0351122"
         x="13.737391"
         y="82.160484"
         id="tspan24">Making of error.os. </tspan></text>
    <g
       id="g9"
       transform="matrix(0.79640695,0,0,0.77461986,58.011476,31.601751)">
      <path
         d="m 26.177685,129.78613 v 3.34231 q 0,0.55979 -0.387372,0.97141 -0.387371,0.41161 -0.914197,0.41161 h -9.203958 v 0.80677 q 0,0.70798 0.573311,1.20191 l 0.759248,0.67505 q 0.619796,0.5104 1.177611,0.5104 h 6.693788 q 0.526826,0 0.914197,0.41162 0.387372,0.39515 0.387372,0.9714 0,0.55981 -0.402867,0.97141 -0.387371,0.41161 -0.898702,0.41161 h -6.864232 q -0.681774,0 -1.441023,-0.29635 -0.743754,-0.31283 -1.100136,-0.64213 l -1.162116,-1.08665 q -0.542321,-0.46101 -0.914199,-1.28424 -0.356381,-0.82323 -0.356381,-1.51474 v -6.33886 q 0,-0.54333 0.387372,-1.46535 0.402866,-0.92201 1.007166,-1.43242 l 1.084643,-0.90555 q 1.069146,-0.92202 2.370716,-0.92202 h 3.656791 q 1.379044,0 2.60314,1.21838 l 0.976176,0.98788 q 1.053652,1.00433 1.053652,2.99655 z m -10.474538,-0.21404 v 2.1404 h 7.902388 v -1.92636 q 0,-0.77383 -0.449351,-1.18545 l -0.759249,-0.70798 q -0.588805,-0.5104 -1.053651,-0.5104 h -3.26942 q -0.6043,0 -1.100136,0.44455 l -0.75925,0.67504 q -0.511331,0.41162 -0.511331,1.0702 z m 16.533036,9.51652 v -13.12226 q 0,-0.57626 0.371878,-0.98788 0.387371,-0.42807 0.929692,-0.42807 0.542321,0 0.914198,0.41161 0.387372,0.41161 0.387372,1.00434 v 1.72878 l 2.122798,-1.92635 q 1.317065,-1.18546 2.57215,-1.18546 h 1.90587 q 1.611467,0 2.758088,1.21838 1.146622,1.21838 1.146622,2.93069 v 0.74091 q 0,0.59273 -0.387372,1.00434 -0.371878,0.41162 -0.914198,0.41162 -0.542321,0 -0.929694,-0.39516 -0.371875,-0.41161 -0.371875,-0.98787 v -0.77384 q 0,-0.57625 -0.387373,-0.9714 -0.371877,-0.41162 -0.914198,-0.41162 H 39.7512 q -0.542322,0 -1.208601,0.60919 l -3.703276,3.40817 v 7.72188 q 0,0.57627 -0.387372,0.98788 -0.387372,0.39514 -0.914198,0.39514 -0.542321,0 -0.929692,-0.39514 -0.371878,-0.41161 -0.371878,-0.98788 z m 19.167166,0 v -13.12226 q 0,-0.57626 0.371876,-0.98788 0.387373,-0.42807 0.929694,-0.42807 0.54232,0 0.914198,0.41161 0.387371,0.41161 0.387371,1.00434 v 1.72878 l 2.122799,-1.92635 q 1.317065,-1.18546 2.572149,-1.18546 h 1.90587 q 1.611468,0 2.758088,1.21838 1.146621,1.21838 1.146621,2.93069 v 0.74091 q 0,0.59273 -0.387372,1.00434 -0.371876,0.41162 -0.914198,0.41162 -0.542319,0 -0.929692,-0.39516 -0.371877,-0.41161 -0.371877,-0.98787 v -0.77384 q 0,-0.57625 -0.387371,-0.9714 -0.371878,-0.41162 -0.914199,-0.41162 h -1.688942 q -0.54232,0 -1.2086,0.60919 l -3.703276,3.40817 v 7.72188 q 0,0.57627 -0.387371,0.98788 -0.387373,0.39514 -0.914198,0.39514 -0.542321,0 -0.929694,-0.39514 -0.371876,-0.41161 -0.371876,-0.98788 z m 32.27583,-9.51652 v 5.84493 q 0,1.86049 -1.657952,3.44109 -1.642457,1.5806 -3.393378,1.5806 h -3.052491 q -1.781911,0 -3.408873,-1.59706 -1.626963,-1.61353 -1.626963,-3.42463 v -5.84493 q 0,-1.8111 1.580477,-3.40816 1.595973,-1.61353 3.455359,-1.61353 h 3.052491 q 1.750921,-0.0329 3.393378,1.54767 1.657952,1.58059 1.657952,3.47402 z m -10.505528,0.11526 v 5.59794 q 0,0.75738 0.511332,1.20192 l 0.976176,0.88909 q 0.325394,0.29636 0.914199,0.29636 h 3.021501 q 0.666279,0 1.2086,-0.5104 l 0.790239,-0.74091 q 0.480342,-0.39514 0.480342,-1.10312 v -5.59796 q 0,-0.82323 -0.480342,-1.21838 L 79.6815,127.72806 q -0.464846,-0.41161 -1.084641,-0.41161 H 75.90075 q -0.883208,0 -1.363549,0.44454 l -0.883208,0.80676 q -0.480342,0.42808 -0.480342,1.1196 z m 16.564028,9.40126 v -13.12226 q 0,-0.57626 0.371885,-0.98788 0.387364,-0.42807 0.929678,-0.42807 0.542332,0 0.9142,0.41161 0.387382,0.41161 0.387382,1.00434 v 1.72878 l 2.122787,-1.92635 q 1.317068,-1.18546 2.572153,-1.18546 h 1.905869 q 1.611487,0 2.758097,1.21838 1.14662,1.21838 1.14662,2.93069 v 0.74091 q 0,0.59273 -0.38736,1.00434 -0.37189,0.41162 -0.9142,0.41162 -0.54233,0 -0.9297,-0.39516 -0.37188,-0.41161 -0.37188,-0.98787 v -0.77384 q 0,-0.57625 -0.387382,-0.9714 -0.371861,-0.41162 -0.914195,-0.41162 H 97.25269 q -0.542315,0 -1.208597,0.60919 l -3.703269,3.40817 v 7.72188 q 0,0.57627 -0.387382,0.98788 -0.387364,0.39514 -0.9142,0.39514 -0.542314,0 -0.929678,-0.39514 -0.371885,-0.41161 -0.371885,-0.98788 z m 24.373461,-7.3432 h 2.63412 q 0.52683,0 0.9142,0.41162 0.38737,0.39515 0.38737,0.97141 v 2.35443 q 0,0.57626 -0.38737,1.00434 -0.37188,0.41162 -0.9142,0.41162 h -2.66512 q -0.54232,0 -0.92969,-0.41162 -0.37188,-0.41161 -0.37188,-0.9714 v -2.38737 q 0,-0.57626 0.38737,-0.97141 0.38738,-0.41162 0.9452,-0.41162 z m 24.4354,-5.23573 v -6.53644 q 0,-0.57626 0.37188,-0.9714 0.37189,-0.41162 0.89871,-0.41162 0.54232,0 0.9297,0.41162 0.40286,0.39514 0.40286,0.9714 v 19.11537 q 0,0.57627 -0.38737,0.98788 -0.38737,0.39514 -0.9142,0.39514 -0.55781,0 -0.9297,-0.39514 -0.37188,-0.41161 -0.37188,-0.98788 v -0.60919 q -1.90586,1.99221 -3.56381,1.99221 h -2.21576 q -1.33257,0 -2.66513,-1.21837 l -1.08463,-0.97141 q -0.37189,-0.37868 -0.71277,-1.26777 -0.32539,-0.88908 -0.32539,-1.66292 v -5.63089 q 0,-0.93848 0.37188,-1.81111 0.37187,-0.88908 0.8677,-1.33362 l 1.06915,-0.97141 q 1.14662,-1.05373 2.69611,-1.05373 h 1.87488 q 1.534,0 2.78908,1.15251 z m -3.78074,0.83969 h -1.81291 q -0.57331,0 -1.03815,0.44454 l -0.83673,0.77384 q -0.43385,0.41162 -0.43385,1.05374 v 5.86138 q 0,0.57626 0.51133,1.03727 l 0.85222,0.77384 q 0.40287,0.37868 0.85222,0.37868 h 2.1228 q 0.41836,0 0.99167,-0.5104 l 2.06081,-1.8111 q 0.51133,-0.47747 0.51133,-1.18545 v -2.99655 q 0,-1.00435 -0.54231,-1.48181 l -2.1228,-1.92636 q -0.41836,-0.41162 -1.11563,-0.41162 z m 25.58205,2.22272 v 5.84493 q 0,1.86049 -1.65795,3.44109 -1.64247,1.5806 -3.39339,1.5806 h -3.05248 q -1.78192,0 -3.40887,-1.59706 -1.62696,-1.61353 -1.62696,-3.42463 v -5.84493 q 0,-1.8111 1.58047,-3.40816 1.59597,-1.61353 3.45536,-1.61353 h 3.05248 q 1.75092,-0.0329 3.39339,1.54767 1.65795,1.58059 1.65795,3.47402 z m -10.50554,0.11526 v 5.59794 q 0,0.75738 0.51134,1.20192 l 0.97618,0.88909 q 0.32539,0.29636 0.9142,0.29636 h 3.0215 q 0.66628,0 1.2086,-0.5104 l 0.79023,-0.74091 q 0.48035,-0.39514 0.48035,-1.10312 v -5.59796 q 0,-0.82323 -0.48035,-1.21838 l -0.91419,-0.77383 q -0.46485,-0.41161 -1.08464,-0.41161 h -2.69611 q -0.88321,0 -1.36355,0.44454 l -0.88321,0.80676 q -0.48035,0.42808 -0.48035,1.1196 z m 28.40212,10.78428 h -5.56266 q -1.47201,0 -2.51017,-0.93848 l -2.52566,-2.33796 q -1.2086,-1.07019 -1.2086,-2.89777 v -3.60574 q -0.062,-1.76171 1.36355,-3.06241 l 2.27775,-2.091 q 1.10013,-0.95495 2.35521,-0.95495 h 5.84157 q 0.54232,0 0.9142,0.41162 0.38738,0.39515 0.38738,0.97141 0,0.59272 -0.38738,0.98787 -0.37188,0.39515 -0.9142,0.39515 h -5.59365 q -0.52683,0 -1.00717,0.44454 l -2.09181,1.89344 q -0.51133,0.461 -0.51133,1.23483 v 3.37524 q 0,0.54333 0.40287,0.92202 l 2.29324,2.07454 q 0.43386,0.41161 1.14662,0.41161 h 5.33024 q 0.52682,0 0.9142,0.41162 0.38737,0.39515 0.38737,0.9714 0,0.57627 -0.38737,0.98788 -0.37187,0.39514 -0.9142,0.39514 z"
         id="text7"
         style="font-size:34.433px;font-family:'OCR A Extended';-inkscape-font-specification:'OCR A Extended';fill:#ffffff;fill-rule:evenodd;stroke-width:0.101264;stroke-linecap:round;stroke-linejoin:round;stroke-miterlimit:3.6"
         aria-label="error.doc" />
      <text
         xml:space="preserve"
         style="font-size:11.8533px;font-family:'OCR A Extended';-inkscape-font-specification:'OCR A Extended';writing-mode:lr-tb;direction:ltr;opacity:1;fill:#ffffff;fill-rule:evenodd;stroke-width:0.0366943;stroke-linecap:round;stroke-linejoin:round;stroke-miterlimit:3.6"
         x="116.32259"
         y="152.04372"
         id="text1"><tspan
           sodipodi:role="line"
           id="tspan1"
           style="stroke-width:0.0366942"
           x="116.32259"
           y="152.04372">/docs/012</tspan></text>
    </g>
    <g
       sodipodi:type="inkscape:box3d"
       id="g1"
       style="opacity:0.226974;fill:#ffffff;fill-rule:evenodd;stroke-width:0.138687;stroke-linecap:round;stroke-linejoin:round;stroke-miterlimit:3.6"
       inkscape:perspectiveID="#perspective1"
       inkscape:corner0="4.142594 : 0.0124829 : 0 : 1"
       inkscape:corner7="2.0089645 : -0.093803906 : 0.70746014 : 1">
      <path
         sodipodi:type="inkscape:box3dside"
         id="path6"
         style="fill:#bec1fc"
         inkscape:box3dsidetype="11"
         d="m 36.283422,116.80546 23.19179,0.2315 v 28.59921 l -23.19179,-10.6622 z"
         points="59.475212,117.03696 59.475212,145.63617 36.283422,134.97397 36.283422,116.80546 " />
      <path
         sodipodi:type="inkscape:box3dside"
         id="path1"
         style="fill:#353564;fill-rule:evenodd;stroke:none;stroke-linejoin:round"
         inkscape:box3dsidetype="6"
         d="m 14.916191,116.86093 v 20.66793 l 21.367231,-2.55489 v -18.16851 z"
         points="14.916191,137.52886 36.283422,134.97397 36.283422,116.80546 14.916191,116.86093 " />
      <path
         sodipodi:type="inkscape:box3dside"
         id="path5"
         style="fill:#000000"
         inkscape:box3dsidetype="13"
         d="m 14.916191,137.52886 13.493276,14.98072 31.065745,-6.87341 -23.19179,-10.6622 z"
         points="28.409467,152.50958 59.475212,145.63617 36.283422,134.97397 14.916191,137.52886 " />
      <path
         sodipodi:type="inkscape:box3dside"
         id="path2"
         style="fill:#4d4d9f;fill-rule:evenodd;stroke:none;stroke-linejoin:round"
         inkscape:box3dsidetype="5"
         d="m 14.916191,116.86093 13.493276,0.32526 31.065745,-0.14923 -23.19179,-0.2315 z"
         points="28.409467,117.18619 59.475212,117.03696 36.283422,116.80546 14.916191,116.86093 " />
      <path
         sodipodi:type="inkscape:box3dside"
         id="path4"
         style="fill:#1b248f"
         inkscape:box3dsidetype="14"
         d="m 28.409467,117.18619 v 35.32339 l 31.065745,-6.87341 v -28.59921 z"
         points="28.409467,152.50958 59.475212,145.63617 59.475212,117.03696 28.409467,117.18619 " />
      <path
         sodipodi:type="inkscape:box3dside"
         id="path3"
         style="fill:#828282"
         inkscape:box3dsidetype="3"
         d="m 14.916191,116.86093 13.493276,0.32526 v 35.32339 L 14.916191,137.52886 Z"
         points="28.409467,117.18619 28.409467,152.50958 14.916191,137.52886 14.916191,116.86093 " />
    </g>
    <text
       xml:space="preserve"
       style="font-size:11.8533px;font-family:'OCR A Extended';-inkscape-font-specification:'OCR A Extended';writing-mode:lr-tb;direction:ltr;opacity:0.226974;fill:#ffffff;fill-rule:evenodd;stroke-width:0.0366943;stroke-linecap:round;stroke-linejoin:round;stroke-miterlimit:3.6"
       x="41.556763"
       y="144.87875"
       id="text6"><tspan
         sodipodi:role="line"
         id="tspan6"
         style="stroke-width:0.0366942"
         x="41.556763"
         y="144.87875" /></text>
    <rect
       style="opacity:0.226974;fill:#ffffff;fill-rule:evenodd;stroke-width:0.0366943;stroke-linecap:round;stroke-linejoin:round;stroke-miterlimit:3.6"
       id="rect6"
       width="186.48398"
       height="0.34598142"
       x="16.646099"
       y="105.0909"
       ry="0.17299071" />
  </g>
</svg>
