<?xml version="1.0" encoding="UTF-8" standalone="no"?>
<!-- Created with Inkscape (http://www.inkscape.org/) -->

<svg
   version="1.1"
   id="svg1"
   width="1280"
   height="640"
   viewBox="0 0 1280 640"
   sodipodi:docname="examplethumb.svg"
   xml:space="preserve"
   inkscape:export-filename="docs/000/thumb.png"
   inkscape:export-xdpi="96"
   inkscape:export-ydpi="96"
   inkscape:version="1.4.3 (0d15f75, 2025-12-25)"
   xmlns:inkscape="http://www.inkscape.org/namespaces/inkscape"
   xmlns:sodipodi="http://sodipodi.sourceforge.net/DTD/sodipodi-0.dtd"
   xmlns:xlink="http://www.w3.org/1999/xlink"
   xmlns="http://www.w3.org/2000/svg"
   xmlns:svg="http://www.w3.org/2000/svg"><defs
     id="defs1"><linearGradient
       id="linearGradient1"
       inkscape:collect="always"><stop
         style="stop-color:#dee1ff;stop-opacity:1;"
         offset="0.27108434"
         id="stop1" /><stop
         style="stop-color:#000000;stop-opacity:1;"
         offset="1"
         id="stop2" /></linearGradient><linearGradient
       inkscape:collect="always"
       xlink:href="#linearGradient1"
       id="linearGradient2"
       x1="11.766165"
       y1="226.411"
       x2="51.841721"
       y2="111.20021"
       gradientUnits="userSpaceOnUse"
       gradientTransform="matrix(6.5374365,0,0,7.2131083,-71.141525,-484.93663)" /><linearGradient
       id="linearGradient31"
       inkscape:collect="always"><stop
         style="stop-color:#000000;stop-opacity:1;"
         offset="0.94712645"
         id="stop31" /><stop
         style="stop-color:#2b2b2b;stop-opacity:1;"
         offset="1"
         id="stop32" /></linearGradient><linearGradient
       id="linearGradient28"
       inkscape:collect="always"><stop
         style="stop-color:#222222;stop-opacity:1;"
         offset="0.94482756"
         id="stop29" /><stop
         style="stop-color:#000000;stop-opacity:1;"
         offset="0.98850572"
         id="stop30" /></linearGradient><linearGradient
       id="linearGradient20"
       inkscape:collect="always"><stop
         style="stop-color:#ffffff;stop-opacity:1;"
         offset="0.57701147"
         id="stop20" /><stop
         style="stop-color:#aeaeae;stop-opacity:1;"
         offset="0.61035818"
         id="stop22" /><stop
         style="stop-color:#ffffff;stop-opacity:1;"
         offset="0.65634859"
         id="stop23" /><stop
         style="stop-color:#8b8b8b;stop-opacity:1;"
         offset="0.65634859"
         id="stop24" /><stop
         style="stop-color:#ffffff;stop-opacity:1;"
         offset="0.70488507"
         id="stop25" /><stop
         style="stop-color:#cbcbcb;stop-opacity:1;"
         offset="0.70488507"
         id="stop26" /><stop
         style="stop-color:#ffffff;stop-opacity:1;"
         offset="0.74863505"
         id="stop27" /><stop
         style="stop-color:#7a7a7a;stop-opacity:1;"
         offset="0.74863505"
         id="stop28" /><stop
         style="stop-color:#ffffff;stop-opacity:1;"
         offset="0.81839079"
         id="stop21" /></linearGradient><linearGradient
       inkscape:collect="always"
       xlink:href="#linearGradient20"
       id="linearGradient21"
       x1="109.01536"
       y1="102.57823"
       x2="128.71849"
       y2="102.57823"
       gradientUnits="userSpaceOnUse" /><linearGradient
       inkscape:collect="always"
       xlink:href="#linearGradient28"
       id="linearGradient30"
       x1="27.88962"
       y1="102.75123"
       x2="129.66226"
       y2="102.75123"
       gradientUnits="userSpaceOnUse" /><linearGradient
       inkscape:collect="always"
       xlink:href="#linearGradient31"
       id="linearGradient32"
       x1="27.88962"
       y1="102.75123"
       x2="120.36572"
       y2="102.75123"
       gradientUnits="userSpaceOnUse" /><filter
       style="color-interpolation-filters:sRGB"
       id="filter11"
       x="-0.22142269"
       y="-0.17863253"
       width="1.4428452"
       height="1.357272"><feGaussianBlur
         stdDeviation="1.5130501"
         id="feGaussianBlur11" /></filter><linearGradient
       id="linearGradient14"><stop
         style="stop-color:#ffffff;stop-opacity:1;"
         offset="0"
         id="stop14" /><stop
         style="stop-color:#000000;stop-opacity:0;"
         offset="1"
         id="stop15" /></linearGradient><linearGradient
       id="linearGradient12"><stop
         style="stop-color:#f9f9f9;stop-opacity:1;"
         offset="0"
         id="stop12" /><stop
         style="stop-color:#f9f9f9;stop-opacity:0;"
         offset="1"
         id="stop13" /></linearGradient><linearGradient
       id="linearGradient8"><stop
         style="stop-color:#e6edff;stop-opacity:1;"
         offset="0.12195119"
         id="stop8" /><stop
         style="stop-color:#b2c8c8;stop-opacity:1;"
         offset="0.87073171"
         id="stop10" /><stop
         style="stop-color:#000211;stop-opacity:1;"
         offset="0.99756098"
         id="stop9" /></linearGradient><filter
       style="color-interpolation-filters:sRGB"
       id="filter5"
       x="-0.029500652"
       y="-0.84107909"
       width="1.0590013"
       height="2.6821582"><feGaussianBlur
         stdDeviation="0.49145361"
         id="feGaussianBlur5" /></filter><filter
       style="color-interpolation-filters:sRGB"
       id="filter6"
       x="-0.021987377"
       y="-0.048860819"
       width="1.0439748"
       height="1.0977216"><feGaussianBlur
         stdDeviation="0.36645635"
         id="feGaussianBlur6" /></filter><linearGradient
       xlink:href="#linearGradient8"
       id="linearGradient9"
       x1="24.349045"
       y1="4.0031219"
       x2="23.650949"
       y2="43.996876"
       gradientUnits="userSpaceOnUse" /><filter
       style="color-interpolation-filters:sRGB"
       id="filter10"
       x="-0.065130203"
       y="-0.039624981"
       width="1.1344265"
       height="1.1009946"><feGaussianBlur
         stdDeviation="0.66778754"
         id="feGaussianBlur10" /></filter><filter
       style="color-interpolation-filters:sRGB"
       id="filter12"
       x="-0.069754763"
       y="-0.044215535"
       width="1.1436756"
       height="1.1101757"><feGaussianBlur
         stdDeviation="0.74515074"
         id="feGaussianBlur12" /></filter><linearGradient
       xlink:href="#linearGradient12"
       id="linearGradient13"
       x1="1.2269294"
       y1="24.662975"
       x2="46.773071"
       y2="24.662975"
       gradientUnits="userSpaceOnUse" /><filter
       style="color-interpolation-filters:sRGB"
       id="filter13"
       x="-0.11793789"
       y="-0.1360257"
       width="1.2358759"
       height="1.272068"><feGaussianBlur
         stdDeviation="1.1596356"
         id="feGaussianBlur13" /></filter><linearGradient
       xlink:href="#linearGradient14"
       id="linearGradient15"
       x1="5.9770093"
       y1="24.672157"
       x2="41.46946"
       y2="24.672157"
       gradientUnits="userSpaceOnUse" /><filter
       style="color-interpolation-filters:sRGB"
       id="filter15"
       x="-0.060096008"
       y="-0.057532145"
       width="1.120192"
       height="1.1150643"><feGaussianBlur
         stdDeviation="0.88873104"
         id="feGaussianBlur15" /></filter><linearGradient
       id="linearGradient29"><stop
         style="stop-color:#ffffff;stop-opacity:1;"
         offset="0"
         id="stop29-5" /><stop
         style="stop-color:#cccccc;stop-opacity:1;"
         offset="1"
         id="stop30-1" /></linearGradient><linearGradient
       id="linearGradient27"><stop
         style="stop-color:#ffffff;stop-opacity:1;"
         offset="0"
         id="stop27-7" /><stop
         style="stop-color:#c5c5c5;stop-opacity:1;"
         offset="1"
         id="stop28-1" /></linearGradient><filter
       style="color-interpolation-filters:sRGB"
       id="filter19"
       x="-0.051012743"
       y="-0.049983928"
       width="1.1020255"
       height="1.0999679"><feGaussianBlur
         stdDeviation="0.55263806"
         id="feGaussianBlur19" /></filter><filter
       style="color-interpolation-filters:sRGB"
       id="filter20"
       x="-0.24375"
       y="-0.39"
       width="1.4875"
       height="1.78"><feGaussianBlur
         stdDeviation="0.8125"
         id="feGaussianBlur20" /></filter><filter
       style="color-interpolation-filters:sRGB"
       id="filter21"
       x="-0.097855309"
       y="-0.083875008"
       width="1.1957106"
       height="1.16775"><feGaussianBlur
         stdDeviation="0.48927642"
         id="feGaussianBlur21" /></filter><filter
       style="color-interpolation-filters:sRGB"
       id="filter22"
       x="-0.075793356"
       y="-0.049265682"
       width="1.1515867"
       height="1.0985314"><feGaussianBlur
         stdDeviation="0.82109467"
         id="feGaussianBlur22" /></filter><filter
       style="color-interpolation-filters:sRGB"
       id="filter23"
       x="-0.071110972"
       y="-0.071295575"
       width="1.1422219"
       height="1.1425912"><feGaussianBlur
         stdDeviation="0.41481401"
         id="feGaussianBlur23" /></filter><filter
       style="color-interpolation-filters:sRGB"
       id="filter24"
       x="-0.051676446"
       y="-0.063551262"
       width="1.1033529"
       height="1.1271025"><feGaussianBlur
         stdDeviation="0.30141339"
         id="feGaussianBlur24" /></filter><filter
       style="color-interpolation-filters:sRGB"
       id="filter25"
       x="-0.080725942"
       y="-0.086902001"
       width="1.1614519"
       height="1.173804"><feGaussianBlur
         stdDeviation="0.40347582"
         id="feGaussianBlur25" /></filter><filter
       style="color-interpolation-filters:sRGB"
       id="filter26"
       x="-0.15252826"
       y="-0.3102167"
       width="1.3050565"
       height="1.6204334"><feGaussianBlur
         stdDeviation="0.42801723"
         id="feGaussianBlur26" /></filter><linearGradient
       xlink:href="#linearGradient27"
       id="linearGradient28-1"
       x1="-26.04616"
       y1="9.8651934"
       x2="-27.34099"
       y2="13.422707"
       gradientUnits="userSpaceOnUse" /><linearGradient
       xlink:href="#linearGradient29"
       id="linearGradient30-5"
       x1="22.813843"
       y1="11.723027"
       x2="19.028004"
       y2="11.723027"
       gradientUnits="userSpaceOnUse" /><filter
       style="color-interpolation-filters:sRGB"
       id="filter30"
       x="-0.40331535"
       y="-0.60827888"
       width="1.8066307"
       height="2.2165578"><feGaussianBlur
         stdDeviation="1.1936773"
         id="feGaussianBlur30" /></filter><linearGradient
       id="linearGradient10"><stop
         style="stop-color:#22ce73;stop-opacity:1;"
         offset="0"
         id="stop10-7" /><stop
         style="stop-color:#11663a;stop-opacity:1;"
         offset="1"
         id="stop11-4" /></linearGradient><filter
       style="color-interpolation-filters:sRGB"
       id="filter7"
       x="-0.052690995"
       y="-0.31614597"
       width="1.105382"
       height="1.6322919"><feGaussianBlur
         stdDeviation="0.52690993"
         id="feGaussianBlur7" /></filter><filter
       style="color-interpolation-filters:sRGB"
       id="filter8"
       x="-0.018556214"
       y="-0.037112428"
       width="1.0371124"
       height="1.0742249"><feGaussianBlur
         stdDeviation="0.30927022"
         id="feGaussianBlur8" /></filter><filter
       style="color-interpolation-filters:sRGB"
       id="filter9"
       x="-0.016878328"
       y="-0.036118582"
       width="1.0337567"
       height="1.0722372"><feGaussianBlur
         stdDeviation="0.28129461"
         id="feGaussianBlur9" /></filter><filter
       style="color-interpolation-filters:sRGB"
       id="filter10-2"
       x="-0.074675365"
       y="-0.29721204"
       width="1.1493507"
       height="1.5944241"><feGaussianBlur
         stdDeviation="1.0587556"
         id="feGaussianBlur10-7" /></filter><linearGradient
       xlink:href="#linearGradient10"
       id="linearGradient11-7"
       x1="4"
       y1="24"
       x2="44"
       y2="24"
       gradientUnits="userSpaceOnUse" /></defs><sodipodi:namedview
     id="namedview1"
     pagecolor="#505050"
     bordercolor="#eeeeee"
     borderopacity="1"
     inkscape:showpageshadow="0"
     inkscape:pageopacity="0"
     inkscape:pagecheckerboard="0"
     inkscape:deskcolor="#505050"
     showgrid="false"
     inkscape:zoom="0.33359375"
     inkscape:cx="526.08899"
     inkscape:cy="-202.34192"
     inkscape:window-width="1440"
     inkscape:window-height="829"
     inkscape:window-x="-8"
     inkscape:window-y="-8"
     inkscape:window-maximized="1"
     inkscape:current-layer="g1"><inkscape:page
       x="0"
       y="0"
       width="1280"
       height="640"
       id="page2"
       margin="0"
       bleed="0" /></sodipodi:namedview><g
     inkscape:groupmode="layer"
     inkscape:label="Image"
     id="g1"><path
       id="rect1"
       style="fill:url(#linearGradient2);fill-rule:evenodd;stroke-width:0.251979;stroke-linecap:round;stroke-linejoin:round;stroke-miterlimit:3.6"
       d="m 10.425643,-1.4207097 c 419.031347,0 838.062707,0 1257.094057,0 20.464,8.2120517 7.572,39.8739977 11.1955,58.8822187 0,190.366741 0,380.733431 0,571.100131 -7.4429,22.57912 -36.1389,8.35465 -53.3666,12.35259 -404.9743,0 -809.94864,0 -1214.922957,0 -20.464084,-8.21205 -7.5720446,-39.87399 -11.19549066,-58.88219 0,-190.36677 0,-380.73345 0,-571.100158 C -0.93119159,4.3087127 4.4228839,-1.5987148 10.425643,-1.4207097 Z"
       inkscape:export-filename="thumb.svg"
       inkscape:export-xdpi="96"
       inkscape:export-ydpi="96"
       inkscape:label="bg" /><path
       style="opacity:0.226974;fill:#000000;fill-opacity:1;fill-rule:evenodd;stroke-width:0.138687;stroke-linecap:round;stroke-linejoin:round;stroke-miterlimit:3.6"
       d="M 96.571042,314.36956 269.1661,542.4416 l 10.27351,-2.05471 c 0,0 30.82055,-30.82054 207.52501,-197.25149 C 663.66907,176.70446 809.55299,61.641091 809.55299,61.641091 L 484.90991,45.203466 Z"
       id="path3" /><g
       id="g32"
       inkscape:label="error.doc"
       transform="matrix(1.880835,0,0,2.0495389,36.465422,215.63892)"><path
         id="rect17"
         style="opacity:1;fill:url(#linearGradient30);fill-rule:evenodd;stroke-width:0.0330242;stroke-linecap:round;stroke-linejoin:round;stroke-miterlimit:3.6"
         d="M 28.033779,46.4827 H 129.5181 c 0.0799,0 0.14416,0.0643 0.14416,0.144159 V 158.87561 c 0,0.0799 -0.0643,0.14415 -0.14416,0.14415 H 28.033779 c -0.07986,0 -0.144159,-0.0643 -0.144159,-0.14415 V 46.626859 c 0,-0.07986 0.06429,-0.144159 0.144159,-0.144159 z"
         inkscape:label="backcover" /><path
         id="rect16"
         style="opacity:1;fill:url(#linearGradient21);fill-rule:evenodd;stroke-width:0.0325986;stroke-linecap:round;stroke-linejoin:round;stroke-miterlimit:3.6"
         d="m 30.97534,46.971992 h 94.13334 c 0.0831,0 0.14997,0.06689 0.14997,0.14997 V 158.38048 c 0,0.0831 -0.0669,0.14997 -0.14997,0.14997 H 30.97534 c -0.08308,0 -0.149969,-0.0669 -0.149969,-0.14997 V 47.121962 c 0,-0.08308 0.06689,-0.14997 0.149969,-0.14997 z"
         inkscape:label="page" /><path
         id="rect15"
         style="opacity:1;fill:url(#linearGradient32);fill-rule:evenodd;stroke-width:0.0314798;stroke-linecap:round;stroke-linejoin:round;stroke-miterlimit:3.6"
         d="m 28.033779,46.4827 h 92.187791 c 0.0799,0 0.14415,0.0643 0.14415,0.144159 V 158.87561 c 0,0.0799 -0.0643,0.14415 -0.14415,0.14415 H 28.033779 c -0.07986,0 -0.144159,-0.0643 -0.144159,-0.14415 V 46.626859 c 0,-0.07986 0.06429,-0.144159 0.144159,-0.144159 z"
         inkscape:label="cover" /><path
         id="rect18"
         style="opacity:0.226974;fill:#ffffff;fill-rule:evenodd;stroke-width:0.0366943;stroke-linecap:round;stroke-linejoin:round;stroke-miterlimit:3.6"
         d="m 95.584848,46.4827 h 9.929142 c 0.0958,0 0.17299,0.07715 0.17299,0.172991 v 29.011517 c 0,0.09584 -5.17529,-3.863207 -5.24939,-3.802503 l -4.852742,3.975494 c -0.07414,0.06074 -0.17299,-0.07715 -0.17299,-0.172991 V 46.655691 c 0,-0.09584 0.07715,-0.172991 0.17299,-0.172991 z"
         sodipodi:nodetypes="sssssssss"
         inkscape:label="sv" /><path
         style="font-size:38.9229px;font-family:'Courier New';-inkscape-font-specification:'Courier New';opacity:0.226974;fill:#ffffff;fill-rule:evenodd;stroke-width:0.120493;stroke-linecap:round;stroke-linejoin:round;stroke-miterlimit:3.6"
         d="m 48.524269,96.110716 17.256833,-9.616694 q 0.418117,-0.228064 0.627175,-0.228064 0.323091,0 0.551155,0.24707 0.247069,0.228063 0.247069,0.551154 0,0.475133 -0.646181,0.836234 l -14.786141,8.2103 14.767136,8.210304 q 0.646181,0.3611 0.646181,0.83623 0,0.32309 -0.24707,0.57016 -0.228063,0.22806 -0.551154,0.22806 -0.209058,0 -0.627176,-0.22806 z M 83.227988,84.954591 82.505786,97.8402 q -0.03801,0.60817 -0.266074,0.855239 -0.209059,0.24707 -0.532149,0.24707 -0.342096,0 -0.57016,-0.24707 Q 80.928344,98.44837 80.890334,97.8402 L 80.187137,84.954591 q -0.03801,-0.456128 -0.03801,-0.665186 0,-0.646181 0.437123,-1.083304 0.456127,-0.437122 1.121314,-0.437122 0.665186,0 1.102308,0.437122 0.437123,0.437123 0.437123,1.102309 0,0.190053 -0.01901,0.646181 z m -1.900532,18.853279 h 0.741208 q 0.817229,0 1.387388,0.58917 0.589165,0.57016 0.589165,1.38738 0,0.83624 -0.589165,1.4064 -0.589165,0.57016 -1.387388,0.57016 h -0.741208 q -0.817229,0 -1.406394,-0.57016 -0.570159,-0.58917 -0.570159,-1.38739 0,-0.85524 0.589165,-1.4254 0.589165,-0.57016 1.387388,-0.57016 z m 33.544394,-7.697154 -17.256832,9.616694 q -0.418117,0.22806 -0.627176,0.22806 -0.32309,0 -0.570159,-0.22806 -0.228064,-0.24707 -0.228064,-0.57016 0,-0.47513 0.646181,-0.83623 l 14.78614,-8.210304 -14.767135,-8.2103 q -0.646181,-0.361101 -0.646181,-0.836234 0,-0.323091 0.228064,-0.551154 0.247069,-0.24707 0.57016,-0.24707 0.209058,0 0.627175,0.228064 z"
         id="text32"
         transform="scale(0.86511154,1.1559203)"
         aria-label="&lt;!&gt;"
         inkscape:label="&lt;!&gt;" /></g><text
       xml:space="preserve"
       style="font-size:62.6696px;font-family:'OCR A Extended';-inkscape-font-specification:'OCR A Extended';writing-mode:lr-tb;direction:ltr;opacity:0.718;fill:#ffffff;fill-rule:evenodd;stroke-width:0.194006;stroke-linecap:round;stroke-linejoin:round;stroke-miterlimit:3.6"
       x="70.548927"
       y="115.07398"
       id="text2"
       inkscape:label="add title"
       transform="scale(0.98334673,1.0169353)"><tspan
         sodipodi:role="line"
         style="stroke-width:0.194005"
         x="70.548927"
         y="115.07398"
         id="tspan23">         A brief introduction</tspan><tspan
         sodipodi:role="line"
         style="stroke-width:0.194005"
         x="70.548927"
         y="193.41098"
         id="tspan24">to error.os , a linux distro</tspan></text><g
       id="g9"
       transform="matrix(5.2064599,0,0,5.5874169,239.86093,-314.69537)"><path
         d="m 26.177685,129.78613 v 3.34231 q 0,0.55979 -0.387372,0.97141 -0.387371,0.41161 -0.914197,0.41161 h -9.203958 v 0.80677 q 0,0.70798 0.573311,1.20191 l 0.759248,0.67505 q 0.619796,0.5104 1.177611,0.5104 h 6.693788 q 0.526826,0 0.914197,0.41162 0.387372,0.39515 0.387372,0.9714 0,0.55981 -0.402867,0.97141 -0.387371,0.41161 -0.898702,0.41161 h -6.864232 q -0.681774,0 -1.441023,-0.29635 -0.743754,-0.31283 -1.100136,-0.64213 l -1.162116,-1.08665 q -0.542321,-0.46101 -0.914199,-1.28424 -0.356381,-0.82323 -0.356381,-1.51474 v -6.33886 q 0,-0.54333 0.387372,-1.46535 0.402866,-0.92201 1.007166,-1.43242 l 1.084643,-0.90555 q 1.069146,-0.92202 2.370716,-0.92202 h 3.656791 q 1.379044,0 2.60314,1.21838 l 0.976176,0.98788 q 1.053652,1.00433 1.053652,2.99655 z m -10.474538,-0.21404 v 2.1404 h 7.902388 v -1.92636 q 0,-0.77383 -0.449351,-1.18545 l -0.759249,-0.70798 q -0.588805,-0.5104 -1.053651,-0.5104 h -3.26942 q -0.6043,0 -1.100136,0.44455 l -0.75925,0.67504 q -0.511331,0.41162 -0.511331,1.0702 z m 16.533036,9.51652 v -13.12226 q 0,-0.57626 0.371878,-0.98788 0.387371,-0.42807 0.929692,-0.42807 0.542321,0 0.914198,0.41161 0.387372,0.41161 0.387372,1.00434 v 1.72878 l 2.122798,-1.92635 q 1.317065,-1.18546 2.57215,-1.18546 h 1.90587 q 1.611467,0 2.758088,1.21838 1.146622,1.21838 1.146622,2.93069 v 0.74091 q 0,0.59273 -0.387372,1.00434 -0.371878,0.41162 -0.914198,0.41162 -0.542321,0 -0.929694,-0.39516 -0.371875,-0.41161 -0.371875,-0.98787 v -0.77384 q 0,-0.57625 -0.387373,-0.9714 -0.371877,-0.41162 -0.914198,-0.41162 H 39.7512 q -0.542322,0 -1.208601,0.60919 l -3.703276,3.40817 v 7.72188 q 0,0.57627 -0.387372,0.98788 -0.387372,0.39514 -0.914198,0.39514 -0.542321,0 -0.929692,-0.39514 -0.371878,-0.41161 -0.371878,-0.98788 z m 19.167166,0 v -13.12226 q 0,-0.57626 0.371876,-0.98788 0.387373,-0.42807 0.929694,-0.42807 0.54232,0 0.914198,0.41161 0.387371,0.41161 0.387371,1.00434 v 1.72878 l 2.122799,-1.92635 q 1.317065,-1.18546 2.572149,-1.18546 h 1.90587 q 1.611468,0 2.758088,1.21838 1.146621,1.21838 1.146621,2.93069 v 0.74091 q 0,0.59273 -0.387372,1.00434 -0.371876,0.41162 -0.914198,0.41162 -0.542319,0 -0.929692,-0.39516 -0.371877,-0.41161 -0.371877,-0.98787 v -0.77384 q 0,-0.57625 -0.387371,-0.9714 -0.371878,-0.41162 -0.914199,-0.41162 h -1.688942 q -0.54232,0 -1.2086,0.60919 l -3.703276,3.40817 v 7.72188 q 0,0.57627 -0.387371,0.98788 -0.387373,0.39514 -0.914198,0.39514 -0.542321,0 -0.929694,-0.39514 -0.371876,-0.41161 -0.371876,-0.98788 z m 32.27583,-9.51652 v 5.84493 q 0,1.86049 -1.657952,3.44109 -1.642457,1.5806 -3.393378,1.5806 h -3.052491 q -1.781911,0 -3.408873,-1.59706 -1.626963,-1.61353 -1.626963,-3.42463 v -5.84493 q 0,-1.8111 1.580477,-3.40816 1.595973,-1.61353 3.455359,-1.61353 h 3.052491 q 1.750921,-0.0329 3.393378,1.54767 1.657952,1.58059 1.657952,3.47402 z m -10.505528,0.11526 v 5.59794 q 0,0.75738 0.511332,1.20192 l 0.976176,0.88909 q 0.325394,0.29636 0.914199,0.29636 h 3.021501 q 0.666279,0 1.2086,-0.5104 l 0.790239,-0.74091 q 0.480342,-0.39514 0.480342,-1.10312 v -5.59796 q 0,-0.82323 -0.480342,-1.21838 L 79.6815,127.72806 q -0.464846,-0.41161 -1.084641,-0.41161 H 75.90075 q -0.883208,0 -1.363549,0.44454 l -0.883208,0.80676 q -0.480342,0.42808 -0.480342,1.1196 z m 16.564028,9.40126 v -13.12226 q 0,-0.57626 0.371885,-0.98788 0.387364,-0.42807 0.929678,-0.42807 0.542332,0 0.9142,0.41161 0.387382,0.41161 0.387382,1.00434 v 1.72878 l 2.122787,-1.92635 q 1.317068,-1.18546 2.572153,-1.18546 h 1.905869 q 1.611487,0 2.758097,1.21838 1.14662,1.21838 1.14662,2.93069 v 0.74091 q 0,0.59273 -0.38736,1.00434 -0.37189,0.41162 -0.9142,0.41162 -0.54233,0 -0.9297,-0.39516 -0.37188,-0.41161 -0.37188,-0.98787 v -0.77384 q 0,-0.57625 -0.387382,-0.9714 -0.371861,-0.41162 -0.914195,-0.41162 H 97.25269 q -0.542315,0 -1.208597,0.60919 l -3.703269,3.40817 v 7.72188 q 0,0.57627 -0.387382,0.98788 -0.387364,0.39514 -0.9142,0.39514 -0.542314,0 -0.929678,-0.39514 -0.371885,-0.41161 -0.371885,-0.98788 z m 24.373461,-7.3432 h 2.63412 q 0.52683,0 0.9142,0.41162 0.38737,0.39515 0.38737,0.97141 v 2.35443 q 0,0.57626 -0.38737,1.00434 -0.37188,0.41162 -0.9142,0.41162 h -2.66512 q -0.54232,0 -0.92969,-0.41162 -0.37188,-0.41161 -0.37188,-0.9714 v -2.38737 q 0,-0.57626 0.38737,-0.97141 0.38738,-0.41162 0.9452,-0.41162 z m 24.4354,-5.23573 v -6.53644 q 0,-0.57626 0.37188,-0.9714 0.37189,-0.41162 0.89871,-0.41162 0.54232,0 0.9297,0.41162 0.40286,0.39514 0.40286,0.9714 v 19.11537 q 0,0.57627 -0.38737,0.98788 -0.38737,0.39514 -0.9142,0.39514 -0.55781,0 -0.9297,-0.39514 -0.37188,-0.41161 -0.37188,-0.98788 v -0.60919 q -1.90586,1.99221 -3.56381,1.99221 h -2.21576 q -1.33257,0 -2.66513,-1.21837 l -1.08463,-0.97141 q -0.37189,-0.37868 -0.71277,-1.26777 -0.32539,-0.88908 -0.32539,-1.66292 v -5.63089 q 0,-0.93848 0.37188,-1.81111 0.37187,-0.88908 0.8677,-1.33362 l 1.06915,-0.97141 q 1.14662,-1.05373 2.69611,-1.05373 h 1.87488 q 1.534,0 2.78908,1.15251 z m -3.78074,0.83969 h -1.81291 q -0.57331,0 -1.03815,0.44454 l -0.83673,0.77384 q -0.43385,0.41162 -0.43385,1.05374 v 5.86138 q 0,0.57626 0.51133,1.03727 l 0.85222,0.77384 q 0.40287,0.37868 0.85222,0.37868 h 2.1228 q 0.41836,0 0.99167,-0.5104 l 2.06081,-1.8111 q 0.51133,-0.47747 0.51133,-1.18545 v -2.99655 q 0,-1.00435 -0.54231,-1.48181 l -2.1228,-1.92636 q -0.41836,-0.41162 -1.11563,-0.41162 z m 25.58205,2.22272 v 5.84493 q 0,1.86049 -1.65795,3.44109 -1.64247,1.5806 -3.39339,1.5806 h -3.05248 q -1.78192,0 -3.40887,-1.59706 -1.62696,-1.61353 -1.62696,-3.42463 v -5.84493 q 0,-1.8111 1.58047,-3.40816 1.59597,-1.61353 3.45536,-1.61353 h 3.05248 q 1.75092,-0.0329 3.39339,1.54767 1.65795,1.58059 1.65795,3.47402 z m -10.50554,0.11526 v 5.59794 q 0,0.75738 0.51134,1.20192 l 0.97618,0.88909 q 0.32539,0.29636 0.9142,0.29636 h 3.0215 q 0.66628,0 1.2086,-0.5104 l 0.79023,-0.74091 q 0.48035,-0.39514 0.48035,-1.10312 v -5.59796 q 0,-0.82323 -0.48035,-1.21838 l -0.91419,-0.77383 q -0.46485,-0.41161 -1.08464,-0.41161 h -2.69611 q -0.88321,0 -1.36355,0.44454 l -0.88321,0.80676 q -0.48035,0.42808 -0.48035,1.1196 z m 28.40212,10.78428 h -5.56266 q -1.47201,0 -2.51017,-0.93848 l -2.52566,-2.33796 q -1.2086,-1.07019 -1.2086,-2.89777 v -3.60574 q -0.062,-1.76171 1.36355,-3.06241 l 2.27775,-2.091 q 1.10013,-0.95495 2.35521,-0.95495 h 5.84157 q 0.54232,0 0.9142,0.41162 0.38738,0.39515 0.38738,0.97141 0,0.59272 -0.38738,0.98787 -0.37188,0.39515 -0.9142,0.39515 h -5.59365 q -0.52683,0 -1.00717,0.44454 l -2.09181,1.89344 q -0.51133,0.461 -0.51133,1.23483 v 3.37524 q 0,0.54333 0.40287,0.92202 l 2.29324,2.07454 q 0.43386,0.41161 1.14662,0.41161 h 5.33024 q 0.52682,0 0.9142,0.41162 0.38737,0.39515 0.38737,0.9714 0,0.57627 -0.38737,0.98788 -0.37187,0.39514 -0.9142,0.39514 z"
         id="text7"
         style="font-size:34.433px;font-family:'OCR A Extended';-inkscape-font-specification:'OCR A Extended';fill:#ffffff;fill-rule:evenodd;stroke-width:0.101264;stroke-linecap:round;stroke-linejoin:round;stroke-miterlimit:3.6"
         aria-label="error.doc" /><text
         xml:space="preserve"
         style="font-size:11.8533px;font-family:'OCR A Extended';-inkscape-font-specification:'OCR A Extended';writing-mode:lr-tb;direction:ltr;opacity:1;fill:#ffffff;fill-rule:evenodd;stroke-width:0.0366943;stroke-linecap:round;stroke-linejoin:round;stroke-miterlimit:3.6"
         x="116.32259"
         y="152.04372"
         id="text1"><tspan
           sodipodi:role="line"
           id="tspan1"
           style="stroke-width:0.0366942"
           x="116.32259"
           y="152.04372">/docs/000</tspan></text></g><rect
       style="opacity:0.43;fill:#ffffff;fill-rule:evenodd;stroke-width:0.251979;stroke-linecap:round;stroke-linejoin:round;stroke-miterlimit:3.6"
       id="rect6"
       width="1219.1272"
       height="2.4956014"
       x="31.060778"
       y="261.88242"
       ry="1.2478007" /><text
       xml:space="preserve"
       style="font-size:44.8px;font-family:'Courier New';-inkscape-font-specification:'Courier New';writing-mode:lr-tb;direction:ltr;opacity:1;fill:#ffffff;fill-rule:evenodd;stroke-width:0.138687;stroke-linecap:round;stroke-linejoin:round;stroke-miterlimit:3.6"
       x="79.449852"
       y="109.86877"
       id="text3"><tspan
         sodipodi:role="line"
         id="tspan2"
         x="79.449852"
         y="109.86877">chapter 00:</tspan></text></g></svg>
