<?xml version="1.0" encoding="UTF-8" standalone="no"?>
<!-- Created with Inkscape (http://www.inkscape.org/) -->

<svg
   width="512"
   height="512"
   viewBox="0 0 512 512"
   version="1.1"
   id="svg1"
   inkscape:export-filename="error.doc.svg"
   inkscape:export-xdpi="96"
   inkscape:export-ydpi="96"
   sodipodi:docname="edock.svg"
   inkscape:version="1.4.2 (f4327f4, 2025-05-13)"
   xmlns:inkscape="http://www.inkscape.org/namespaces/inkscape"
   xmlns:sodipodi="http://sodipodi.sourceforge.net/DTD/sodipodi-0.dtd"
   xmlns:xlink="http://www.w3.org/1999/xlink"
   xmlns="http://www.w3.org/2000/svg"
   xmlns:svg="http://www.w3.org/2000/svg">
  <sodipodi:namedview
     id="namedview1"
     pagecolor="#505050"
     bordercolor="#eeeeee"
     borderopacity="1"
     inkscape:showpageshadow="0"
     inkscape:pageopacity="0"
     inkscape:pagecheckerboard="0"
     inkscape:deskcolor="#505050"
     inkscape:document-units="px"
     inkscape:zoom="1.1855469"
     inkscape:cx="255.99999"
     inkscape:cy="256.84349"
     inkscape:window-width="1440"
     inkscape:window-height="829"
     inkscape:window-x="-8"
     inkscape:window-y="-8"
     inkscape:window-maximized="1"
     inkscape:current-layer="layer1">
    <inkscape:page
       x="0"
       y="0"
       width="512"
       height="512"
       id="page2"
       margin="0"
       bleed="0" />
  </sodipodi:namedview>
  <defs
     id="defs1">
    <linearGradient
       id="linearGradient1"
       inkscape:collect="always">
      <stop
         style="stop-color:#595656;stop-opacity:1;"
         offset="0"
         id="stop1" />
      <stop
         style="stop-color:#000000;stop-opacity:1;"
         offset="1"
         id="stop2" />
    </linearGradient>
    <radialGradient
       inkscape:collect="always"
       xlink:href="#linearGradient1"
       id="radialGradient2"
       cx="231.88316"
       cy="93.081184"
       fx="231.88316"
       fy="93.081184"
       r="197.6129"
       gradientTransform="matrix(1.1621995,-0.02134205,0.02059395,1.1214609,-30.172584,-25.632444)"
       gradientUnits="userSpaceOnUse" />
    <filter
       inkscape:collect="always"
       style="color-interpolation-filters:sRGB"
       id="filter6"
       x="-0.084384688"
       y="-0.14420002"
       width="1.1687694"
       height="1.2884005">
      <feGaussianBlur
         inkscape:collect="always"
         stdDeviation="8.9773946"
         id="feGaussianBlur6" />
    </filter>
    <filter
       inkscape:collect="always"
       style="color-interpolation-filters:sRGB"
       id="filter7"
       x="-0.00094967848"
       y="-0.0030805603"
       width="1.0018994"
       height="1.0061611">
      <feGaussianBlur
         inkscape:collect="always"
         stdDeviation="0.023988657"
         id="feGaussianBlur7" />
    </filter>
    <filter
       inkscape:collect="always"
       style="color-interpolation-filters:sRGB"
       id="filter8"
       x="-0.085691738"
       y="-0.076133169"
       width="1.1713831"
       height="1.1522663">
      <feGaussianBlur
         inkscape:collect="always"
         stdDeviation="11.114636"
         id="feGaussianBlur8" />
    </filter>
    <radialGradient
       inkscape:collect="always"
       xlink:href="#linearGradient1"
       id="radialGradient3"
       gradientUnits="userSpaceOnUse"
       gradientTransform="matrix(1.1621995,-0.02134205,0.02059395,1.1214609,-30.172584,-25.632444)"
       cx="231.88316"
       cy="93.081184"
       fx="231.88316"
       fy="93.081184"
       r="197.6129" />
  </defs>
  <g
     inkscape:label="Layer 1"
     inkscape:groupmode="layer"
     id="layer1">
    <path
       id="rect1"
       style="opacity:1;fill:url(#radialGradient3);fill-rule:evenodd;stroke:#ffffff;stroke-width:12.28;stroke-linecap:round;stroke-linejoin:round;stroke-miterlimit:3.6;stroke-dasharray:24.56, 12.28"
       d="M 52.064136,38.800659 H 432.10062 c 0.80584,0 1.45458,0.648744 1.45458,1.454582 V 468.3708 c 0,0.80584 -0.64874,1.45458 -1.45458,1.45458 H 52.064136 c -0.805838,0 -1.454582,-0.64874 -1.454582,-1.45458 V 40.255241 c 0,-0.805838 0.648744,-1.454582 1.454582,-1.454582 z" />
    <path
       id="rect2"
       style="opacity:1;fill:#f5e7e7;fill-rule:evenodd;stroke:#ffffff;stroke-width:12.28;stroke-linecap:round;stroke-linejoin:round;stroke-miterlimit:3.6;stroke-dasharray:24.56, 12.28"
       d="m 75.68193,75.91433 h 331.95738 c 0.80584,0 1.45458,0.648743 1.45458,1.454581 v 0.464807 c 0,0.805838 -0.64874,1.454582 -1.45458,1.454582 H 75.68193 c -0.805838,0 -1.454582,-0.648744 -1.454582,-1.454582 v -0.464807 c 0,-0.805838 0.648744,-1.454581 1.454582,-1.454581 z" />
    <path
       id="rect3"
       style="opacity:1;fill:#f5e7e7;fill-rule:evenodd;stroke:#ffffff;stroke-width:12.28;stroke-linecap:round;stroke-linejoin:round;stroke-miterlimit:3.6;stroke-dasharray:24.56, 12.28"
       d="M 73.994941,108.81055 H 342.69042 c 0.80584,0 1.45458,0.64874 1.45458,1.45458 v 0.46481 c 0,0.80583 -0.64874,1.45458 -1.45458,1.45458 H 73.994941 c -0.805838,0 -1.454582,-0.64875 -1.454582,-1.45458 v -0.46481 c 0,-0.80584 0.648744,-1.45458 1.454582,-1.45458 z" />
    <path
       id="rect4"
       style="opacity:1;fill:#f5e7e7;fill-rule:evenodd;stroke:#ffffff;stroke-width:12.28;stroke-linecap:round;stroke-linejoin:round;stroke-miterlimit:3.6;stroke-dasharray:24.56, 12.28"
       d="M 79.899391,139.17627 H 241.47128 c 0.80583,0 1.45458,0.64874 1.45458,1.45458 v 1.3083 c 0,0.80584 -0.64875,1.45458 -1.45458,1.45458 H 79.899391 c -0.805839,0 -1.454582,-0.64874 -1.454582,-1.45458 v -1.3083 c 0,-0.80584 0.648743,-1.45458 1.454582,-1.45458 z" />
    <path
       id="rect5"
       style="opacity:1;fill-rule:evenodd;stroke:#ffffff;stroke-width:12.1628;stroke-linecap:round;stroke-linejoin:round;stroke-miterlimit:3.6;stroke-dasharray:24.3257, 12.1628"
       d="M 43.594472,272.38995 H 368.02769 c 0.82079,0 1.48157,0.66078 1.48157,1.48158 v 188.62599 c 0,0.82079 -0.66078,1.48158 -1.48157,1.48158 H 43.594472 c -0.820791,0 -1.481572,-0.66079 -1.481572,-1.48158 V 273.87153 c 0,-0.8208 0.660781,-1.48158 1.481572,-1.48158 z" />
    <path
       id="rect6"
       style="opacity:0.308696;fill:#363636;fill-rule:evenodd;stroke:#ffffff;stroke-width:12.1628;stroke-linecap:round;stroke-linejoin:round;stroke-miterlimit:3.6;stroke-dasharray:24.3257, 12.1628;filter:url(#filter6)"
       d="M 43.594472,272.38995 H 368.02769 c 0.82079,0 1.48157,0.66078 1.48157,1.48158 v 188.62599 c 0,0.82079 -0.66078,1.48158 -1.48157,1.48158 H 43.594472 c -0.820791,0 -1.481572,-0.66079 -1.481572,-1.48158 V 273.87153 c 0,-0.8208 0.660781,-1.48158 1.481572,-1.48158 z" />
    <path
       id="rect7"
       style="opacity:0.308696;fill:#363636;fill-rule:evenodd;stroke:#ffffff;stroke-width:12.28;stroke-linecap:round;stroke-linejoin:round;stroke-miterlimit:3.6;stroke-dasharray:24.56, 12.28"
       d="m 116.16957,272.44809 h 250.9821 c 0.80584,0 1.45458,0.64874 1.45458,1.45458 v 22.39561 c 0,0.80584 -0.64874,1.45458 -1.45458,1.45458 h -250.9821 c -0.80584,0 -1.45458,-0.64874 -1.45458,-1.45458 v -22.39561 c 0,-0.80584 0.64874,-1.45458 1.45458,-1.45458 z" />
    <path
       d="m 275.86659,435.38049 h 2.39062 q 0.47813,0 0.82969,0.35157 0.35156,0.3375 0.35156,0.82968 v 2.01094 q 0,0.49219 -0.35156,0.85781 -0.3375,0.35157 -0.82969,0.35157 h -2.41875 q -0.49218,0 -0.84375,-0.35157 -0.3375,-0.35156 -0.3375,-0.82968 v -2.03907 q 0,-0.49218 0.35157,-0.82968 0.35156,-0.35157 0.85781,-0.35157 z m 22.17656,-4.47187 v -5.58281 q 0,-0.49219 0.3375,-0.82969 0.3375,-0.35156 0.81563,-0.35156 0.49218,0 0.84375,0.35156 0.36562,0.3375 0.36562,0.82969 v 16.32656 q 0,0.49219 -0.35156,0.84375 -0.35156,0.3375 -0.82969,0.3375 -0.50625,0 -0.84375,-0.3375 -0.3375,-0.35156 -0.3375,-0.84375 v -0.52031 q -1.72969,1.70156 -3.23437,1.70156 h -2.01094 q -1.20938,0 -2.41875,-1.04063 l -0.98438,-0.82968 q -0.3375,-0.32344 -0.64687,-1.08282 -0.29531,-0.75937 -0.29531,-1.42031 v -4.80937 q 0,-0.80157 0.3375,-1.54688 0.3375,-0.75937 0.7875,-1.13906 l 0.97031,-0.82969 q 1.04062,-0.9 2.44687,-0.9 h 1.70157 q 1.39218,0 2.53125,0.98438 z m -3.43125,0.71719 h -1.64531 q -0.52031,0 -0.94219,0.37968 l -0.75937,0.66094 q -0.39375,0.35156 -0.39375,0.9 v 5.00625 q 0,0.49219 0.46406,0.88594 l 0.77344,0.66094 q 0.36562,0.32343 0.77343,0.32343 h 1.92657 q 0.37968,0 0.9,-0.43593 l 1.87031,-1.54688 q 0.46406,-0.40781 0.46406,-1.0125 v -2.55937 q 0,-0.85782 -0.49219,-1.26563 l -1.92656,-1.64531 q -0.37969,-0.35156 -1.0125,-0.35156 z m 23.21719,1.89843 v 4.99219 q 0,1.58906 -1.50469,2.93906 -1.49063,1.35 -3.07969,1.35 h -2.77031 q -1.61719,0 -3.09375,-1.36406 -1.47656,-1.37812 -1.47656,-2.925 v -4.99219 q 0,-1.54687 1.43437,-2.91093 1.44844,-1.37813 3.13594,-1.37813 h 2.77031 q 1.58906,-0.0281 3.07969,1.32188 1.50469,1.35 1.50469,2.96718 z m -9.53438,0.0984 v 4.78125 q 0,0.64688 0.46406,1.02656 l 0.88594,0.75938 q 0.29531,0.25312 0.82969,0.25312 h 2.74219 q 0.60468,0 1.09687,-0.43593 l 0.71719,-0.63282 q 0.43594,-0.3375 0.43594,-0.94218 v -4.78125 q 0,-0.70313 -0.43594,-1.04063 l -0.82969,-0.66094 q -0.42187,-0.35156 -0.98437,-0.35156 h -2.44688 q -0.80156,0 -1.2375,0.37969 l -0.80156,0.68906 q -0.43594,0.36563 -0.43594,0.95625 z m 25.77656,9.21094 h -5.04843 q -1.33594,0 -2.27813,-0.80156 l -2.29218,-1.99688 q -1.09688,-0.91406 -1.09688,-2.475 v -3.07969 q -0.0563,-1.50468 1.2375,-2.61562 l 2.06719,-1.78594 q 0.99844,-0.81562 2.1375,-0.81562 h 5.30156 q 0.49219,0 0.82969,0.35156 0.35156,0.3375 0.35156,0.82969 0,0.50625 -0.35156,0.84375 -0.3375,0.3375 -0.82969,0.3375 h -5.07656 q -0.47813,0 -0.91406,0.37968 l -1.89844,1.61719 q -0.46406,0.39375 -0.46406,1.05469 v 2.88281 q 0,0.46406 0.36562,0.7875 l 2.08125,1.77188 q 0.39375,0.35156 1.04063,0.35156 h 4.83749 q 0.47813,0 0.82969,0.35156 0.35156,0.3375 0.35156,0.82969 0,0.49219 -0.35156,0.84375 -0.3375,0.3375 -0.82969,0.3375 z"
       id="text7"
       style="font-size:28.8px;font-family:'OCR A Extended';-inkscape-font-specification:'OCR A Extended';opacity:0.308696;fill:#ffffff;fill-rule:evenodd;stroke-width:12.28;stroke-linecap:round;stroke-linejoin:round;stroke-miterlimit:3.6;stroke-dasharray:24.56, 12.28;filter:url(#filter7)"
       transform="matrix(2.8608931,0,0,3.0634031,-614.75016,-918.92401)"
       aria-label=".doc" />
    <path
       id="rect8"
       style="opacity:0.258427;fill:url(#radialGradient2);fill-rule:evenodd;stroke:#ffffff;stroke-width:12.28;stroke-linecap:round;stroke-linejoin:round;stroke-miterlimit:3.6;stroke-dasharray:24.56, 12.28;filter:url(#filter8)"
       d="M 52.064136,38.800659 H 432.10062 c 0.80584,0 1.45458,0.648744 1.45458,1.454582 V 468.3708 c 0,0.80584 -0.64874,1.45458 -1.45458,1.45458 H 52.064136 c -0.805838,0 -1.454582,-0.64874 -1.454582,-1.45458 V 40.255241 c 0,-0.805838 0.648744,-1.454582 1.454582,-1.454582 z" />
  </g>
</svg>
