<?xml version="1.0" encoding="UTF-8" standalone="no"?>
<!-- Created with Inkscape (http://www.inkscape.org/) -->

<svg
   width="195.71661mm"
   height="89.051071mm"
   viewBox="0 0 195.71661 89.051071"
   version="1.1"
   id="svg1"
   xmlns:xlink="http://www.w3.org/1999/xlink"
   xmlns="http://www.w3.org/2000/svg"
   xmlns:svg="http://www.w3.org/2000/svg">
  <defs
     id="defs1">
    <linearGradient
       id="linearGradient1">
      <stop
         style="stop-color:#000000;stop-opacity:1;"
         offset="0"
         id="stop1" />
      <stop
         style="stop-color:#030a25;stop-opacity:1;"
         offset="1"
         id="stop2" />
    </linearGradient>
    <linearGradient
       xlink:href="#linearGradient1"
       id="linearGradient2"
       x1="10.764415"
       y1="111.55848"
       x2="52.843472"
       y2="226.05272"
       gradientUnits="userSpaceOnUse" />
  </defs>
  <g
     id="layer1"
     transform="translate(-10.764415,-67.032945)">
    <path
       id="rect1"
       style="opacity:1;fill:url(#linearGradient2);fill-rule:evenodd;stroke-width:0.0366943;stroke-linecap:round;stroke-linejoin:round;stroke-miterlimit:3.6"
       d="M 12.476935,67.032944 H 204.76852 c 0.94874,0 1.71252,0.763784 1.71252,1.71252 v 85.626026 c 0,0.94874 -0.76378,1.71252 -1.71252,1.71252 H 12.476935 c -0.948736,0 -1.71252,-0.76378 -1.71252,-1.71252 V 68.745464 c 0,-0.948736 0.763784,-1.71252 1.71252,-1.71252 z" />
    <path
       d="m 30.752185,122.99342 v 3.41303 q 0,0.57164 -0.420325,0.99197 -0.420324,0.42032 -0.991966,0.42032 h -9.986915 v 0.82384 q 0,0.72296 0.622081,1.22735 l 0.823836,0.68933 q 0.67252,0.5212 1.277787,0.5212 h 7.263211 q 0.571642,0 0.991966,0.42033 0.420325,0.40351 0.420325,0.99196 0,0.57165 -0.437138,0.99197 -0.420324,0.42032 -0.975153,0.42032 h -7.448153 q -0.739772,0 -1.563608,-0.30263 -0.807024,-0.31945 -1.193722,-0.65571 l -1.260974,-1.10965 q -0.588455,-0.47077 -0.991967,-1.31142 -0.386698,-0.84065 -0.386698,-1.54679 v -6.473 q 0,-0.55483 0.420324,-1.49636 0.437138,-0.94152 1.092844,-1.46273 l 1.17691,-0.92471 q 1.160096,-0.94153 2.572387,-0.94153 h 3.967865 q 1.496356,0 2.824582,1.24416 l 1.059218,1.00878 q 1.143283,1.02559 1.143283,3.05997 z m -11.36558,-0.21857 v 2.18569 h 8.574624 v -1.96712 q 0,-0.79021 -0.487577,-1.21054 l -0.823836,-0.72296 q -0.638893,-0.5212 -1.143283,-0.5212 h -3.547541 q -0.655706,0 -1.193722,0.45395 l -0.823836,0.68933 q -0.554829,0.42033 -0.554829,1.09285 z m 17.939459,9.7179 V 119.0928 q 0,-0.58845 0.403512,-1.00878 0.420324,-0.43713 1.008779,-0.43713 0.588455,0 0.991966,0.42032 0.420325,0.42032 0.420325,1.02559 v 1.76537 l 2.303379,-1.96712 q 1.429104,-1.21054 2.790956,-1.21054 h 2.067998 q 1.74855,0 2.992711,1.24416 1.244162,1.24416 1.244162,2.99271 v 0.75659 q 0,0.60527 -0.420325,1.02559 -0.403512,0.42033 -0.991966,0.42033 -0.588455,0 -1.00878,-0.40352 -0.403511,-0.42032 -0.403511,-1.00878 v -0.79021 q 0,-0.58845 -0.420325,-0.99196 -0.403512,-0.42033 -0.991966,-0.42033 h -1.832616 q -0.588455,0 -1.311413,0.62208 l -4.018304,3.48029 v 7.88529 q 0,0.58846 -0.420325,1.00878 -0.420324,0.40351 -0.991966,0.40351 -0.588455,0 -1.008779,-0.40351 -0.403512,-0.42032 -0.403512,-1.00878 z m 20.797667,0 V 119.0928 q 0,-0.58845 0.403511,-1.00878 0.420325,-0.43713 1.00878,-0.43713 0.588454,0 0.991966,0.42032 0.420325,0.42032 0.420325,1.02559 v 1.76537 l 2.303379,-1.96712 q 1.429104,-1.21054 2.790956,-1.21054 h 2.067997 q 1.748551,0 2.992712,1.24416 1.244161,1.24416 1.244161,2.99271 v 0.75659 q 0,0.60527 -0.420325,1.02559 -0.403511,0.42033 -0.991966,0.42033 -0.588454,0 -1.008779,-0.40352 -0.403512,-0.42032 -0.403512,-1.00878 v -0.79021 q 0,-0.58845 -0.420324,-0.99196 -0.403512,-0.42033 -0.991967,-0.42033 H 66.27803 q -0.588455,0 -1.311413,0.62208 l -4.018304,3.48029 v 7.88529 q 0,0.58846 -0.420325,1.00878 -0.420325,0.40351 -0.991966,0.40351 -0.588455,0 -1.00878,-0.40351 -0.403511,-0.42032 -0.403511,-1.00878 z m 35.021452,-9.7179 v 5.96861 q 0,1.89986 -1.79899,3.51391 -1.782177,1.61405 -3.682044,1.61405 H 84.35199 q -1.933493,0 -3.698857,-1.63086 -1.765364,-1.64767 -1.765364,-3.4971 v -5.96861 q 0,-1.84943 1.714925,-3.48029 1.731738,-1.64767 3.749296,-1.64767 h 3.312159 q 1.899867,-0.0336 3.682044,1.58042 1.79899,1.61404 1.79899,3.54754 z m -11.399206,0.11769 v 5.71641 q 0,0.7734 0.554829,1.22735 l 1.059218,0.9079 q 0.353073,0.30264 0.991966,0.30264 h 3.278533 q 0.722958,0 1.311413,-0.52121 l 0.857462,-0.75658 q 0.521203,-0.40351 0.521203,-1.12647 v -5.71642 q 0,-0.84065 -0.521203,-1.24416 l -0.991966,-0.79021 q -0.50439,-0.42032 -1.176909,-0.42032 h -2.92546 q -0.95834,0 -1.479543,0.45395 l -0.95834,0.82383 q -0.521203,0.43714 -0.521203,1.14329 z m 17.973087,9.60021 V 119.0928 q 0,-0.58845 0.403516,-1.00878 0.42032,-0.43713 1.00877,-0.43713 0.58846,0 0.99197,0.42032 0.42033,0.42032 0.42033,1.02559 v 1.76537 l 2.30337,-1.96712 q 1.42911,-1.21054 2.79096,-1.21054 h 2.068 q 1.74855,0 2.99271,1.24416 1.24416,1.24416 1.24416,2.99271 v 0.75659 q 0,0.60527 -0.42032,1.02559 -0.40352,0.42033 -0.99197,0.42033 -0.58845,0 -1.00878,-0.40352 -0.40351,-0.42032 -0.40351,-1.00878 v -0.79021 q 0,-0.58845 -0.42033,-0.99196 -0.40351,-0.42033 -0.99196,-0.42033 h -1.83262 q -0.58845,0 -1.31141,0.62208 l -4.0183,3.48029 v 7.88529 q 0,0.58846 -0.42033,1.00878 -0.42032,0.40351 -0.99197,0.40351 -0.58845,0 -1.00877,-0.40351 -0.403516,-0.42032 -0.403516,-1.00878 z m 26.446836,-7.49859 h 2.8582 q 0.57165,0 0.99197,0.42033 0.42032,0.40351 0.42032,0.99196 v 2.40426 q 0,0.58845 -0.42032,1.02559 -0.40351,0.42033 -0.99197,0.42033 h -2.89183 q -0.58845,0 -1.00878,-0.42033 -0.40351,-0.42032 -0.40351,-0.99196 v -2.43789 q 0,-0.58845 0.42032,-0.99196 0.42033,-0.42033 1.0256,-0.42033 z m 26.51407,-5.34653 v -6.67476 q 0,-0.58845 0.40351,-0.99196 0.40352,-0.42033 0.97516,-0.42033 0.58845,0 1.00878,0.42033 0.43713,0.40351 0.43713,0.99196 v 19.51988 q 0,0.58846 -0.42032,1.00878 -0.42032,0.40351 -0.99197,0.40351 -0.60526,0 -1.00878,-0.40351 -0.40351,-0.42032 -0.40351,-1.00878 v -0.62208 q -2.06799,2.03437 -3.86698,2.03437 h -2.40426 q -1.44592,0 -2.89184,-1.24416 l -1.1769,-0.99196 q -0.40352,-0.3867 -0.7734,-1.2946 -0.35307,-0.9079 -0.35307,-1.69811 v -5.75005 q 0,-0.95834 0.40351,-1.84943 0.40351,-0.9079 0.94152,-1.36185 l 1.1601,-0.99196 q 1.24416,-1.07603 2.92546,-1.07603 h 2.03437 q 1.66449,0 3.02634,1.1769 z m -4.10237,0.85746 h -1.96712 q -0.62208,0 -1.12647,0.45395 l -0.9079,0.79021 q -0.47076,0.42033 -0.47076,1.07604 v 5.98542 q 0,0.58845 0.55483,1.05922 l 0.92471,0.79021 q 0.43714,0.3867 0.92472,0.3867 h 2.30338 q 0.45395,0 1.07603,-0.52121 l 2.23612,-1.84942 q 0.55483,-0.48758 0.55483,-1.21054 v -3.05996 q 0,-1.0256 -0.58845,-1.51317 l -2.30338,-1.96712 q -0.45395,-0.42033 -1.21054,-0.42033 z m 27.75825,2.26976 v 5.96861 q 0,1.89986 -1.79899,3.51391 -1.78218,1.61405 -3.68205,1.61405 h -3.31215 q -1.9335,0 -3.69886,-1.63086 -1.76536,-1.64767 -1.76536,-3.4971 v -5.96861 q 0,-1.84943 1.71492,-3.48029 1.73174,-1.64767 3.7493,-1.64767 h 3.31215 q 1.89987,-0.0336 3.68205,1.58042 1.79899,1.61404 1.79899,3.54754 z m -11.39921,0.11769 v 5.71641 q 0,0.7734 0.55483,1.22735 l 1.05922,0.9079 q 0.35307,0.30264 0.99197,0.30264 h 3.27853 q 0.72296,0 1.31141,-0.52121 l 0.85746,-0.75658 q 0.52121,-0.40351 0.52121,-1.12647 v -5.71642 q 0,-0.84065 -0.52121,-1.24416 l -0.99196,-0.79021 q -0.50439,-0.42032 -1.17691,-0.42032 h -2.92546 q -0.95834,0 -1.47954,0.45395 l -0.95834,0.82383 q -0.52121,0.43714 -0.52121,1.14329 z m 30.81821,11.0125 h -6.03586 q -1.59723,0 -2.7237,-0.95834 l -2.74052,-2.38744 q -1.31141,-1.09284 -1.31141,-2.95909 v -3.68204 q -0.0673,-1.79899 1.47954,-3.12722 l 2.47151,-2.13525 q 1.19372,-0.97515 2.55557,-0.97515 h 6.3385 q 0.58845,0 0.99196,0.42033 0.42033,0.40351 0.42033,0.99196 0,0.60527 -0.42033,1.00878 -0.40351,0.40351 -0.99196,0.40351 h -6.06949 q -0.57164,0 -1.09284,0.45395 l -2.26976,1.9335 q -0.55483,0.47076 -0.55483,1.26097 v 3.44666 q 0,0.55483 0.43714,0.94153 l 2.48832,2.11844 q 0.47077,0.42032 1.24416,0.42032 h 5.78367 q 0.57164,0 0.99197,0.42033 0.42032,0.40351 0.42032,0.99196 0,0.58846 -0.42032,1.00878 -0.40351,0.40351 -0.99197,0.40351 z"
       id="text7"
       style="font-size:34.433px;font-family:'OCR A Extended';-inkscape-font-specification:'OCR A Extended';fill:#ffffff;fill-rule:evenodd;stroke-width:0.106593;stroke-linecap:round;stroke-linejoin:round;stroke-miterlimit:3.6"
       transform="scale(1.0211614,0.97927713)"
       aria-label="error.doc" />
    <g
       id="g2"
       style="opacity:1;fill:#5a5a5a;fill-rule:evenodd;stroke-width:0.138687;stroke-linecap:round;stroke-linejoin:round;stroke-miterlimit:3.6">
      <path
         d="m 110.06049,93.676849 20.26383,-8.236266 v 27.266967 l -20.26383,3.49854 z"
         style="fill:#bec1fc"
         id="path9" />
      <path
         d="m 89.54036,86.604603 v 26.597387 l 20.52013,3.0041 V 93.676849 Z"
         style="fill:#353564;fill-rule:evenodd;stroke:none;stroke-linejoin:round"
         id="path10" />
      <path
         d="m 89.54036,86.604603 19.57166,-11.932403 21.2123,10.768383 -20.26383,8.236266 z"
         style="fill:#4d4d9f;fill-rule:evenodd;stroke:none;stroke-linejoin:round"
         id="path11" />
      <path
         d="m 89.54036,113.20199 19.57166,-5.06856 21.2123,4.57412 -20.26383,3.49854 z"
         style="fill:#000000"
         id="path12" />
      <path
         d="m 109.11202,74.6722 v 33.46123 l 21.2123,4.57412 V 85.440583 Z"
         style="fill:#1b248f"
         id="path13" />
      <path
         d="M 89.54036,86.604603 109.11202,74.6722 v 33.46123 l -19.57166,5.06856 z"
         style="fill:#828282"
         id="path14" />
    </g>
    <path
       style="font-size:11.8533px;font-family:'OCR A Extended';-inkscape-font-specification:'OCR A Extended';fill:#ffffff;fill-rule:evenodd;stroke-width:0.0366942;stroke-linecap:round;stroke-linejoin:round;stroke-miterlimit:3.6"
       d="m 20.257285,149.75262 v -5.81668 q 0,-0.38199 0.277811,-0.6598 0.277812,-0.27781 0.659803,-0.27781 h 3.032778 q 0.376204,0 0.648228,0.27781 0.277811,0.27781 0.277811,0.6598 v 5.81668 q 0,0.38778 -0.277811,0.66559 -0.272024,0.27203 -0.659803,0.27203 h -3.021203 q -0.393566,0 -0.66559,-0.27203 -0.272024,-0.27781 -0.272024,-0.66559 z m 3.935666,-0.0347 v -5.73566 h -2.963325 v 5.73566 z m 3.223773,0.0347 v -5.81668 q 0,-0.38199 0.277812,-0.6598 0.277812,-0.27781 0.659803,-0.27781 h 3.032778 q 0.376203,0 0.648227,0.27781 0.277812,0.27781 0.277812,0.6598 v 5.81668 q 0,0.38778 -0.277812,0.66559 -0.272024,0.27203 -0.659803,0.27203 h -3.021202 q -0.393567,0 -0.665591,-0.27203 -0.272024,-0.27781 -0.272024,-0.66559 z m 3.935666,-0.0347 v -5.73566 h -2.963325 v 5.73566 z m 3.698369,0 h 1.493238 v -5.73566 H 35.07391 q -0.202571,0 -0.347265,-0.1389 -0.138906,-0.1447 -0.138906,-0.34727 0,-0.20257 0.138906,-0.34148 0.144694,-0.14469 0.347265,-0.14469 h 2.442428 v 6.708 h 0.972341 v -2.02571 q 0,-0.19679 0.138906,-0.34148 0.144693,-0.14469 0.347264,-0.14469 0.202571,0 0.341477,0.14469 0.144694,0.1389 0.144694,0.34148 v 2.51188 q 0,0.20257 -0.144694,0.34726 -0.138906,0.13891 -0.341477,0.13891 h -3.92409 q -0.202571,0 -0.347265,-0.1447 -0.138906,-0.15048 -0.138906,-0.35305 0,-0.19678 0.138906,-0.33569 0.144694,-0.1389 0.347265,-0.1389 z"
       id="text8"
       aria-label="001" />
    <path
       style="font-size:11.8533px;font-family:'OCR A Extended';-inkscape-font-specification:'OCR A Extended';fill:#ffffff;fill-rule:evenodd;stroke-width:0.0366942;stroke-linecap:round;stroke-linejoin:round;stroke-miterlimit:3.6"
       d="m 50.073772,149.71479 q 0,0.20257 -0.150482,0.35306 -0.144693,0.14469 -0.353052,0.14469 -0.196783,0 -0.341477,-0.14469 -0.138906,-0.15049 -0.138906,-0.35306 v -6.71957 q 0,-0.20257 0.144694,-0.33569 0.144693,-0.1389 0.353052,-0.1389 0.196783,0 0.341477,0.1389 0.144694,0.13312 0.144694,0.33569 z m 12.432074,-6.70799 v 2.28616 l 0.428293,-0.34148 q 0.405142,-0.33569 0.839223,-0.33569 h 0.891313 q 0.491958,0 0.873949,0.33569 l 0.46302,0.39935 q 0.190995,0.16785 0.312538,0.48039 0.12733,0.31254 0.12733,0.6135 v 1.96783 q 0,0.26624 -0.115755,0.56141 -0.115755,0.29518 -0.266236,0.43408 l -0.422505,0.39936 q -0.162057,0.15627 -0.46302,0.2836 -0.300962,0.12154 -0.509321,0.12154 H 63.83124 q -0.607714,0 -1.325394,-0.67717 v 0.191 q 0,0.20257 -0.144693,0.34726 -0.138906,0.13891 -0.341477,0.13891 -0.202571,0 -0.347265,-0.13891 -0.138906,-0.14469 -0.138906,-0.34726 v -6.71957 q 0,-0.20257 0.144694,-0.34148 0.144693,-0.14469 0.341477,-0.14469 0.202571,0 0.341477,0.14469 0.144693,0.13891 0.144693,0.34148 z m 2.083588,2.59291 h -0.671378 q -0.243085,0 -0.370416,0.10996 l -0.873949,0.74662 q -0.167845,0.15049 -0.167845,0.45145 v 1.09967 q 0,0.24308 0.190996,0.40514 l 0.781345,0.6598 q 0.167845,0.15627 0.353053,0.15627 h 0.792921 q 0.167844,0 0.289387,-0.10418 l 0.387779,-0.34726 q 0.156269,-0.11576 0.156269,-0.3299 v -2.04886 q 0,-0.24309 -0.156269,-0.37042 l -0.353053,-0.29517 q -0.162057,-0.13312 -0.35884,-0.13312 z m 8.976792,0.78134 v 2.05465 q 0,0.65402 -0.619289,1.20964 -0.613501,0.55562 -1.267516,0.55562 h -1.140185 q -0.665591,0 -1.273304,-0.56141 -0.607713,-0.5672 -0.607713,-1.20385 v -2.05465 q 0,-0.63665 0.59035,-1.19806 0.596137,-0.5672 1.290667,-0.5672 h 1.140185 q 0.654015,-0.0116 1.267516,0.54405 0.619289,0.55562 0.619289,1.22121 z m -3.924091,0.0405 v 1.96783 q 0,0.26624 0.190996,0.42251 l 0.364628,0.31253 q 0.121542,0.10418 0.341477,0.10418 h 1.12861 q 0.248873,0 0.451444,-0.17942 l 0.295175,-0.26045 q 0.17942,-0.1389 0.17942,-0.38777 v -1.96784 q 0,-0.28938 -0.17942,-0.42829 l -0.341477,-0.27202 q -0.173633,-0.1447 -0.405142,-0.1447 h -1.007068 q -0.329901,0 -0.509321,0.15627 l -0.329902,0.2836 q -0.17942,0.15048 -0.17942,0.39357 z m 11.08353,-0.0405 v 2.05465 q 0,0.65402 -0.619289,1.20964 -0.613501,0.55562 -1.267516,0.55562 h -1.140185 q -0.665591,0 -1.273304,-0.56141 -0.607713,-0.5672 -0.607713,-1.20385 v -2.05465 q 0,-0.63665 0.59035,-1.19806 0.596137,-0.5672 1.290667,-0.5672 h 1.140185 q 0.654015,-0.0116 1.267516,0.54405 0.619289,0.55562 0.619289,1.22121 z m -3.924091,0.0405 v 1.96783 q 0,0.26624 0.190996,0.42251 l 0.364628,0.31253 q 0.121542,0.10418 0.341477,0.10418 h 1.12861 q 0.248873,0 0.451444,-0.17942 l 0.295175,-0.26045 q 0.17942,-0.1389 0.17942,-0.38777 v -1.96784 q 0,-0.28938 -0.17942,-0.42829 l -0.341477,-0.27202 q -0.173632,-0.1447 -0.405142,-0.1447 h -1.007068 q -0.329901,0 -0.509321,0.15627 l -0.329902,0.2836 q -0.17942,0.15048 -0.17942,0.39357 z m 9.601869,3.79097 h -0.972341 q -0.601925,0 -1.036006,-0.42829 -0.434081,-0.4283 -0.434081,-1.03022 v -3.15432 h -0.497746 q -0.202571,0 -0.347264,-0.13891 -0.138906,-0.1389 -0.138906,-0.34726 0,-0.20257 0.138906,-0.34148 0.144693,-0.14469 0.347264,-0.14469 h 0.509322 v -1.19228 q 0,-0.20257 0.138906,-0.34148 0.144693,-0.14469 0.347264,-0.14469 0.190996,0 0.33569,0.14469 0.150481,0.1447 0.150481,0.34148 v 1.19228 h 1.956257 q 0.196784,0 0.341477,0.14469 0.144694,0.14469 0.144694,0.34148 0,0.20257 -0.144694,0.34726 -0.144693,0.13891 -0.341477,0.13891 h -1.967833 v 3.15432 q 0,0.19678 0.144694,0.34148 0.150481,0.14469 0.353052,0.14469 h 0.94919 q 0.387779,0 0.51511,-0.41672 0.12733,-0.4225 0.491958,-0.4225 0.214146,0 0.347265,0.14469 0.138905,0.13891 0.138905,0.35305 0,0.43987 -0.416717,0.87974 -0.41093,0.43408 -1.05337,0.43408 z m 7.668761,0 H 91.13203 q -0.202571,0 -0.347265,-0.14469 -0.138906,-0.15049 -0.138906,-0.35306 0,-0.19678 0.138906,-0.34147 0.144694,-0.1447 0.347265,-0.1447 h 0.972341 v -5.73565 h -0.983917 q -0.202571,0 -0.347264,-0.13891 -0.138906,-0.14469 -0.138906,-0.34726 0,-0.20257 0.138906,-0.34148 0.144693,-0.14469 0.347264,-0.14469 h 1.481663 q 0.196783,0 0.341477,0.14469 0.144693,0.14469 0.144693,0.34148 v 6.22182 h 0.983917 q 0.196783,0 0.341477,0.1447 0.144693,0.14469 0.144693,0.34147 0,0.20257 -0.144693,0.35306 -0.138906,0.14469 -0.341477,0.14469 z m 8.131776,-3.83149 v 2.05465 q 0,0.65402 -0.61928,1.20964 -0.61351,0.55562 -1.26752,0.55562 h -1.140186 q -0.665591,0 -1.273304,-0.56141 -0.607713,-0.5672 -0.607713,-1.20385 v -2.05465 q 0,-0.63665 0.59035,-1.19806 0.596138,-0.5672 1.290667,-0.5672 h 1.140186 q 0.65401,-0.0116 1.26752,0.54405 0.61928,0.55562 0.61928,1.22121 z m -3.924086,0.0405 v 1.96783 q 0,0.26624 0.190995,0.42251 l 0.364628,0.31253 q 0.121543,0.10418 0.341477,0.10418 h 1.128606 q 0.24888,0 0.45145,-0.17942 l 0.29517,-0.26045 q 0.17942,-0.1389 0.17942,-0.38777 v -1.96784 q 0,-0.28938 -0.17942,-0.42829 l -0.34147,-0.27202 q -0.17364,-0.1447 -0.40515,-0.1447 h -1.007064 q -0.329901,0 -0.509321,0.15627 l -0.329901,0.2836 q -0.17942,0.15048 -0.17942,0.39357 z m 7.634036,0.2836 h 1.90417 q 0.15626,0 0.45144,0.0694 l -0.0116,-0.68874 q 0,-0.20257 -0.14469,-0.34148 -0.13891,-0.14469 -0.34148,-0.14469 h -1.84629 q -0.19678,0 -0.34147,-0.1447 -0.1447,-0.14469 -0.1447,-0.34147 0,-0.20257 0.13891,-0.34148 0.14469,-0.14469 0.34726,-0.14469 h 1.84629 q 0.60193,0 1.02443,0.4225 0.4283,0.42251 0.44566,1.03601 l 0.12154,3.64049 q 0,0.20257 -0.14469,0.34726 -0.14469,0.13891 -0.34148,0.13891 -0.20836,0 -0.35305,-0.13891 -0.14469,-0.14469 -0.14469,-0.34726 l -0.82186,0.48617 h -1.64372 q -0.6135,0 -1.0418,-0.42829 -0.42829,-0.4283 -0.42829,-1.0418 v -0.5672 q 0,-0.60771 0.42829,-1.036 0.43408,-0.43408 1.0418,-0.43408 z m 2.43085,1.89259 -0.0289,-0.41093 q -0.006,-0.20836 -0.14469,-0.34727 -0.13891,-0.1389 -0.34148,-0.1389 h -1.91574 q -0.20257,0 -0.34727,0.14469 -0.1389,0.13891 -0.1389,0.34148 v 0.54405 q 0,0.19678 0.14469,0.34147 0.14469,0.1447 0.34148,0.1447 h 1.37169 z m 7.19417,-3.29323 v -2.29773 q 0,-0.20257 0.13891,-0.34148 0.1389,-0.14469 0.33568,-0.14469 0.20258,0 0.34727,0.14469 0.15048,0.13891 0.15048,0.34148 v 6.71957 q 0,0.20257 -0.14469,0.34726 -0.1447,0.13891 -0.34148,0.13891 -0.20836,0 -0.34726,-0.13891 -0.13891,-0.14469 -0.13891,-0.34726 v -0.21415 q -0.71189,0.70032 -1.33118,0.70032 h -0.82765 q -0.49775,0 -0.99549,-0.42829 l -0.40514,-0.34148 q -0.13891,-0.13312 -0.26624,-0.44566 -0.12154,-0.31253 -0.12154,-0.58456 v -1.97941 q 0,-0.3299 0.1389,-0.63665 0.13891,-0.31254 0.32412,-0.46881 l 0.39935,-0.34147 q 0.42829,-0.37042 1.00707,-0.37042 h 0.70032 q 0.57298,0 1.04179,0.40514 z m -1.41221,0.29518 h -0.67717 q -0.21414,0 -0.38777,0.15627 l -0.31254,0.27202 q -0.16206,0.14469 -0.16206,0.37042 v 2.06043 q 0,0.20257 0.191,0.36463 l 0.31832,0.27203 q 0.15048,0.13311 0.31833,0.13311 h 0.79292 q 0.15627,0 0.37041,-0.17942 l 0.76977,-0.63665 q 0.191,-0.16784 0.191,-0.41672 v -1.05337 q 0,-0.35305 -0.20257,-0.52089 l -0.79292,-0.67717 q -0.15627,-0.14469 -0.41672,-0.14469 z m 9.55557,0.85658 v 1.17492 q 0,0.19678 -0.1447,0.34147 -0.14469,0.1447 -0.34148,0.1447 h -3.43792 v 0.2836 q 0,0.24887 0.21415,0.4225 l 0.2836,0.2373 q 0.23151,0.17942 0.43987,0.17942 h 2.5003 q 0.19679,0 0.34148,0.14469 0.1447,0.13891 0.1447,0.34148 0,0.19678 -0.15049,0.34148 -0.14469,0.14469 -0.33569,0.14469 h -2.56397 q -0.25466,0 -0.53826,-0.10418 -0.27781,-0.10997 -0.41093,-0.22572 l -0.43408,-0.38199 q -0.20257,-0.16206 -0.34147,-0.45145 -0.13312,-0.28938 -0.13312,-0.53247 v -2.22828 q 0,-0.191 0.14469,-0.51511 0.15048,-0.32411 0.37621,-0.50353 l 0.40514,-0.31833 q 0.39935,-0.32411 0.88552,-0.32411 h 1.36591 q 0.51511,0 0.97234,0.42829 l 0.36463,0.34726 q 0.39357,0.35306 0.39357,1.05337 z m -3.91252,-0.0752 v 0.75241 h 2.95175 v -0.67717 q 0,-0.27202 -0.16784,-0.41671 l -0.2836,-0.24888 q -0.21994,-0.17942 -0.39357,-0.17942 h -1.22122 q -0.22572,0 -0.41092,0.15627 l -0.2836,0.2373 q -0.191,0.14469 -0.191,0.3762 z m 6.17552,3.34532 v -4.61283 q 0,-0.20257 0.13891,-0.34727 0.14469,-0.15048 0.34726,-0.15048 0.20257,0 0.34148,0.14469 0.14469,0.1447 0.14469,0.35306 v 0.60771 l 0.79292,-0.67717 q 0.49196,-0.41671 0.96077,-0.41671 h 0.71189 q 0.60193,0 1.03022,0.42829 0.42829,0.42829 0.42829,1.03022 v 0.26045 q 0,0.20836 -0.14469,0.35305 -0.13891,0.14469 -0.34148,0.14469 -0.20257,0 -0.34726,-0.1389 -0.13891,-0.1447 -0.13891,-0.34727 v -0.27202 q 0,-0.20257 -0.14469,-0.34148 -0.13891,-0.14469 -0.34148,-0.14469 h -0.63086 q -0.20257,0 -0.45145,0.21414 l -1.38327,1.19807 v 2.71445 q 0,0.20257 -0.14469,0.34726 -0.14469,0.13891 -0.34148,0.13891 -0.20257,0 -0.34726,-0.13891 -0.13891,-0.14469 -0.13891,-0.34726 z m 14.31888,-3.17747 v -0.37621 q 0,-0.28938 0.29518,-0.46302 l 3.83148,-2.263 q 0.15627,-0.10418 0.31254,-0.10418 0.18521,0 0.3299,0.14469 0.15048,0.14469 0.15048,0.35305 0,0.27203 -0.21414,0.39936 l -3.58262,2.11831 3.58262,2.11253 q 0.21414,0.1389 0.21414,0.41093 0,0.20836 -0.15048,0.35305 -0.14469,0.14469 -0.3299,0.14469 -0.14469,0 -0.31254,-0.10417 l -3.83148,-2.26301 q -0.29518,-0.16206 -0.29518,-0.46302 z m 19.21531,-0.0926 v 1.17492 q 0,0.19678 -0.14469,0.34147 -0.1447,0.1447 -0.34148,0.1447 h -3.43792 v 0.2836 q 0,0.24887 0.21415,0.4225 l 0.2836,0.2373 q 0.23151,0.17942 0.43986,0.17942 h 2.50031 q 0.19678,0 0.34148,0.14469 0.14469,0.13891 0.14469,0.34148 0,0.19678 -0.15048,0.34148 -0.14469,0.14469 -0.33569,0.14469 h -2.56397 q -0.25466,0 -0.53826,-0.10418 -0.27781,-0.10997 -0.41093,-0.22572 l -0.43408,-0.38199 q -0.20257,-0.16206 -0.34148,-0.45145 -0.13312,-0.28938 -0.13312,-0.53247 v -2.22828 q 0,-0.191 0.1447,-0.51511 0.15048,-0.32411 0.3762,-0.50353 l 0.40514,-0.31833 q 0.39936,-0.32411 0.88553,-0.32411 h 1.36591 q 0.5151,0 0.97234,0.42829 l 0.36462,0.34726 q 0.39357,0.35306 0.39357,1.05337 z m -3.91251,-0.0752 v 0.75241 h 2.95175 v -0.67717 q 0,-0.27202 -0.16785,-0.41671 l -0.2836,-0.24888 q -0.21993,-0.17942 -0.39357,-0.17942 h -1.22121 q -0.22572,0 -0.41093,0.15627 l -0.2836,0.2373 q -0.19099,0.14469 -0.19099,0.3762 z m 8.71055,1.73633 -1.59163,1.89259 q -0.15627,0.20257 -0.38778,0.20257 -0.20836,0 -0.34726,-0.14469 -0.13891,-0.1447 -0.13891,-0.35306 0,-0.1852 0.0926,-0.29517 l 1.74212,-2.08938 -1.609,-1.91574 q -0.10996,-0.12733 -0.10996,-0.28939 0,-0.19099 0.13311,-0.34147 0.13891,-0.15627 0.35306,-0.15627 0.24308,0 0.39356,0.17942 l 1.47009,1.76526 1.50481,-1.77684 q 0.13891,-0.16784 0.34727,-0.16784 0.18521,0 0.33569,0.13311 0.15048,0.12734 0.15048,0.32991 0,0.19678 -0.0637,0.27202 l -1.63793,1.97941 1.71896,2.0778 q 0.0984,0.10997 0.0984,0.27202 0,0.21994 -0.15048,0.37042 -0.14469,0.14469 -0.33569,0.14469 -0.22572,0 -0.39356,-0.19678 z m 4.50286,1.60899 v -4.61283 q 0,-0.20257 0.13891,-0.34148 0.14469,-0.14469 0.34727,-0.14469 0.3762,0 0.47459,0.37041 0.40514,-0.38199 0.90289,-0.38199 0.58456,0 0.96076,0.49775 0.46302,-0.49775 1.01865,-0.49775 0.45144,0 0.78134,0.32411 0.33569,0.31833 0.35884,0.81608 l 0.13891,3.97039 q 0,0.19678 -0.1447,0.34148 -0.14469,0.14469 -0.34147,0.14469 -0.20257,0 -0.34727,-0.14469 -0.14469,-0.1447 -0.15048,-0.34148 l -0.11575,-3.81412 q -0.0116,-0.31254 -0.191,-0.31254 -0.0984,0 -0.20257,0.0868 l -0.57877,0.48617 v 3.55368 q 0,0.19678 -0.1447,0.33569 -0.1389,0.1389 -0.34147,0.1389 -0.19679,0 -0.34148,-0.1389 -0.1447,-0.1447 -0.1447,-0.34727 v -3.86621 q 0,-0.24887 -0.21414,-0.24887 -0.10418,0 -0.191,0.0752 l -0.70031,0.59035 v 3.46107 q 0,0.19678 -0.13891,0.34148 -0.13891,0.14469 -0.33569,0.14469 -0.20257,0 -0.35305,-0.14469 -0.1447,-0.1447 -0.1447,-0.34148 z m 8.26491,-0.0694 v 2.15304 q 0,0.20836 -0.14469,0.35305 -0.13891,0.14469 -0.34148,0.14469 -0.20257,0 -0.35305,-0.14469 -0.1447,-0.14469 -0.1447,-0.35305 v -6.93372 q 0,-0.19678 0.1447,-0.34148 0.14469,-0.14469 0.35305,-0.14469 0.19678,0 0.34148,0.14469 0.14469,0.1447 0.14469,0.34148 v 0.31254 q 0.70611,-0.78714 1.39485,-0.78714 h 0.22572 q 0.51511,0 0.94919,0.382 l 0.81028,0.70031 q 0.53248,0.46302 0.53248,1.17491 v 1.51639 q 0,0.71768 -0.57299,1.20964 l -0.79292,0.68296 q -0.39357,0.35884 -0.99549,0.35884 h -0.21415 q -0.5672,0 -0.96077,-0.39357 z m 1.3717,-0.21415 h 0.24887 q 0.17942,0 0.38199,-0.17942 l 0.75819,-0.66559 q 0.191,-0.15048 0.191,-0.41093 v -1.56848 q 0,-0.23151 -0.21415,-0.41093 l -0.81607,-0.70032 q -0.1389,-0.12154 -0.30096,-0.12154 h -0.2836 q -0.16206,0 -0.42251,0.26624 l -0.72346,0.71768 q -0.191,0.19099 -0.191,0.42829 v 1.24437 q 0,0.22572 0.21415,0.43986 l 0.70031,0.70032 q 0.26045,0.26045 0.45724,0.26045 z m 17.00439,-3.27008 v 0.37621 q 0,0.29517 -0.2836,0.46302 l -3.83149,2.26301 q -0.16784,0.10417 -0.31832,0.10417 -0.18521,0 -0.33569,-0.1389 -0.1447,-0.13891 -0.1447,-0.35305 0,-0.27782 0.21994,-0.40515 l 3.57682,-2.1241 -3.57682,-2.10674 q -0.21994,-0.1389 -0.21994,-0.41671 0,-0.21415 0.1447,-0.35306 0.15048,-0.1389 0.33569,-0.1389 0.14469,0 0.31832,0.10418 l 3.83149,2.263 q 0.2836,0.16785 0.2836,0.46302 z"
       id="text9"
       aria-label="| bootloader &lt; exmp &gt;" />
  </g>
</svg>
